<svg xmlns="http://www.w3.org/2000/svg" xmlns:xlink="http://www.w3.org/1999/xlink" width="100" zoomAndPan="magnify" viewBox="0 0 75 74.999997" height="100" preserveAspectRatio="xMidYMid meet" version="1.2"><g id="354dd49bc2"><path style=" stroke:none;fill-rule:nonzero;fill:#41aaf6;fill-opacity:1;" d="M 55.367188 15.546875 C 60.597656 19.628906 63.011719 24.640625 65.074219 30.832031 C 65.945312 40.332031 64.308594 46.652344 59.042969 54.476562 C 53.425781 59.96875 46.972656 63.070312 39.113281 63.3125 C 32.136719 63.230469 26.652344 60.777344 20.894531 56.976562 C 14.628906 50.417969 12.054688 43.425781 12.144531 34.472656 C 12.808594 28.125 15.574219 21.585938 20.222656 17.183594 C 31.90625 9.214844 42.984375 7.542969 55.367188 15.546875 Z M 55.367188 15.546875 "/><path style=" stroke:none;fill-rule:nonzero;fill:#f8fcfe;fill-opacity:1;" d="M 43.808594 25.714844 C 49.261719 30.078125 49.261719 30.078125 49.703125 33.675781 C 49.761719 35.902344 49.730469 38.113281 49.65625 40.339844 C 49.636719 41.5 49.636719 41.5 49.617188 42.683594 C 49.582031 44.582031 49.53125 46.484375 49.472656 48.382812 C 33.933594 49.390625 33.933594 49.390625 29.546875 45.582031 C 25.925781 41.664062 25.738281 38.46875 25.800781 33.253906 C 26.191406 29.792969 27.367188 28.214844 29.972656 25.957031 C 34.828125 23.277344 38.925781 23.035156 43.808594 25.714844 Z M 43.808594 25.714844 "/></g></svg>