<svg xmlns="http://www.w3.org/2000/svg" xmlns:xlink="http://www.w3.org/1999/xlink" width="100" zoomAndPan="magnify" viewBox="0 0 75 74.999997" height="100" preserveAspectRatio="xMidYMid meet" version="1.2"><defs><clipPath id="a544f7c9dc"><path d="M 7.5 7.5 L 67.5 7.5 L 67.5 67.5 L 7.5 67.5 Z M 7.5 7.5 "/></clipPath><clipPath id="b42f742bcf"><path d="M 11 7.5 L 67.5 7.5 L 67.5 67.5 L 11 67.5 Z M 11 7.5 "/></clipPath><clipPath id="eb50b9eb01"><path d="M 7.5 7.5 L 33 7.5 L 33 67.5 L 7.5 67.5 Z M 7.5 7.5 "/></clipPath></defs><g id="8117d18a9d"><g clip-rule="nonzero" clip-path="url(#a544f7c9dc)"><path style=" stroke:none;fill-rule:nonzero;fill:#4dbd96;fill-opacity:1;" d="M 7.5 7.5 C 27.300781 7.5 47.101562 7.5 67.5 7.5 C 67.5 27.300781 67.5 47.101562 67.5 67.5 C 47.699219 67.5 27.898438 67.5 7.5 67.5 C 7.5 47.699219 7.5 27.898438 7.5 7.5 Z M 7.5 7.5 "/></g><path style=" stroke:none;fill-rule:nonzero;fill:#fdfefd;fill-opacity:1;" d="M 48.300781 20.699219 C 51.976562 23.453125 54.828125 27.050781 56.101562 31.5 C 56.6875 36.605469 56.503906 41.046875 54.230469 45.746094 C 53.476562 47.671875 53.566406 49.375 53.734375 51.414062 C 53.699219 52.5 53.699219 52.5 52.5 53.699219 C 51.046875 53.761719 49.632812 53.660156 48.179688 53.566406 C 46.394531 53.617188 46.394531 53.617188 44.492188 54.585938 C 39.902344 56.5 33.925781 56.210938 29.289062 54.449219 C 24.242188 52.015625 21.304688 48.160156 18.976562 43.125 C 17.421875 38.449219 17.449219 32.722656 19.5 28.238281 C 22.433594 23.273438 26.480469 19.664062 32.015625 17.957031 C 37.863281 16.792969 43.183594 17.6875 48.300781 20.699219 Z M 48.300781 20.699219 "/><g clip-rule="nonzero" clip-path="url(#b42f742bcf)"><path style=" stroke:none;fill-rule:nonzero;fill:#fbfdfc;fill-opacity:1;" d="M 41.699219 7.5 C 50.214844 7.5 58.726562 7.5 67.5 7.5 C 67.5 27.300781 67.5 47.101562 67.5 67.5 C 49.085938 67.5 30.671875 67.5 11.699219 67.5 C 15.492188 64.464844 15.492188 64.464844 17.398438 63.113281 C 17.839844 62.792969 18.277344 62.472656 18.730469 62.144531 C 20.496094 61.3125 21.261719 61.523438 23.101562 62.101562 C 24.621094 62.671875 26.105469 63.300781 27.601562 63.9375 C 34.273438 66.441406 42.589844 65.863281 49 62.992188 C 56.605469 59.003906 62.097656 53.726562 64.878906 45.363281 C 65.679688 42.457031 65.910156 39.679688 65.886719 36.675781 C 65.882812 36.226562 65.878906 35.78125 65.878906 35.320312 C 65.726562 28.378906 63.140625 21.742188 58.351562 16.613281 C 55.882812 14.328125 53.039062 12.703125 50.101562 11.101562 C 49.480469 10.753906 48.863281 10.40625 48.226562 10.050781 C 46.078125 9.117188 43.984375 8.613281 41.699219 8.101562 C 41.699219 7.902344 41.699219 7.703125 41.699219 7.5 Z M 41.699219 7.5 "/></g><g clip-rule="nonzero" clip-path="url(#eb50b9eb01)"><path style=" stroke:none;fill-rule:nonzero;fill:#fbfdfd;fill-opacity:1;" d="M 7.5 7.5 C 15.617188 7.5 23.734375 7.5 32.101562 7.5 C 30.351562 8.375 28.820312 9.007812 27 9.636719 C 21.175781 11.957031 16.1875 15.960938 12.898438 21.300781 C 12.613281 21.746094 12.332031 22.191406 12.035156 22.648438 C 8.890625 28.191406 8.351562 34.050781 8.445312 40.300781 C 8.445312 41.046875 8.449219 41.792969 8.449219 42.558594 C 8.457031 44.117188 8.46875 45.675781 8.484375 47.234375 C 8.511719 49.628906 8.523438 52.023438 8.53125 54.417969 C 8.539062 55.9375 8.546875 57.457031 8.558594 58.976562 C 8.5625 59.691406 8.566406 60.410156 8.570312 61.148438 C 8.578125 61.808594 8.585938 62.46875 8.59375 63.148438 C 8.601562 63.730469 8.605469 64.3125 8.613281 64.910156 C 8.609375 66.316406 8.609375 66.316406 9.300781 67.5 C 8.707031 67.5 8.113281 67.5 7.5 67.5 C 7.5 47.699219 7.5 27.898438 7.5 7.5 Z M 7.5 7.5 "/></g></g></svg>