<svg xmlns="http://www.w3.org/2000/svg" xmlns:xlink="http://www.w3.org/1999/xlink" width="100" zoomAndPan="magnify" viewBox="0 0 75 74.999997" height="100" preserveAspectRatio="xMidYMid meet" version="1.2"><defs><clipPath id="f052f7f7af"><path d="M 7.5 7.5 L 67.5 7.5 L 67.5 67.5 L 7.5 67.5 Z M 7.5 7.5 "/></clipPath><clipPath id="59a939f46f"><path d="M 27.300781 17.101562 L 47.699219 17.101562 L 47.699219 58 L 27.300781 58 Z M 27.300781 17.101562 "/></clipPath></defs><g id="2c89ae6b87"><g clip-rule="nonzero" clip-path="url(#f052f7f7af)"><path style=" stroke:none;fill-rule:nonzero;fill:#c72c48;fill-opacity:1;" d="M 7.5 7.5 L 67.5 7.5 L 67.5 67.5 L 7.5 67.5 Z M 7.5 7.5 "/></g><g clip-rule="nonzero" clip-path="url(#59a939f46f)"><path style=" stroke:none;fill-rule:nonzero;fill:#ffffff;fill-opacity:1;" d="M 40.214844 57.917969 C 40.167969 57.890625 39.617188 57.355469 38.992188 56.730469 L 37.859375 55.59375 L 37.859375 48.195312 C 37.859375 44.128906 37.847656 40.789062 37.835938 40.777344 C 37.8125 40.753906 35.953125 41.6875 30.484375 44.46875 C 28.832031 45.308594 27.460938 45.988281 27.433594 45.976562 C 27.402344 45.964844 27.390625 45.929688 27.40625 45.875 C 27.414062 45.832031 27.441406 45.644531 27.460938 45.460938 C 27.558594 44.535156 28.292969 42.351562 29.066406 40.671875 C 31.1875 36.101562 34.613281 32.3125 38.972656 29.71875 C 39.683594 29.296875 40.28125 28.988281 40.339844 29.011719 C 40.386719 29.027344 40.394531 29.511719 40.394531 32.835938 C 40.394531 35.5625 40.40625 36.640625 40.433594 36.640625 C 40.457031 36.640625 40.617188 36.566406 40.796875 36.476562 C 42.046875 35.828125 42.953125 34.625 43.257812 33.203125 C 43.363281 32.722656 43.371094 31.847656 43.277344 31.386719 C 43.105469 30.53125 42.714844 29.726562 42.160156 29.101562 C 41.886719 28.792969 40.980469 27.839844 39.375 26.175781 C 36.953125 23.65625 36.507812 23.175781 36.222656 22.757812 C 36.015625 22.449219 35.832031 22.074219 35.726562 21.71875 C 35.640625 21.433594 35.628906 21.351562 35.628906 20.816406 C 35.625 20.160156 35.664062 19.960938 35.875 19.449219 C 36.289062 18.464844 37.371094 17.546875 38.269531 17.417969 C 38.898438 17.324219 39.695312 17.339844 40.210938 17.457031 C 40.632812 17.554688 41.316406 17.96875 41.785156 18.40625 C 42.335938 18.925781 42.613281 19.339844 44.679688 22.726562 C 47.121094 26.726562 47.414062 27.21875 47.453125 27.421875 C 47.496094 27.625 47.464844 27.710938 47.355469 27.710938 C 47.261719 27.707031 47.289062 27.734375 42.894531 23.136719 C 42.511719 22.734375 41.839844 22.027344 41.40625 21.566406 C 40.273438 20.359375 39.800781 19.90625 39.589844 19.8125 C 39.316406 19.691406 38.9375 19.695312 38.675781 19.824219 C 38.15625 20.078125 37.914062 20.664062 38.105469 21.179688 C 38.203125 21.4375 38.070312 21.289062 41.246094 24.601562 C 42.671875 26.085938 43.953125 27.445312 44.105469 27.621094 C 46.492188 30.476562 46.296875 34.714844 43.660156 37.339844 C 43.050781 37.941406 42.445312 38.351562 41.324219 38.929688 C 40.941406 39.125 40.574219 39.320312 40.507812 39.355469 L 40.394531 39.429688 L 40.394531 48.644531 C 40.394531 53.710938 40.386719 57.886719 40.375 57.917969 C 40.347656 57.980469 40.335938 57.980469 40.214844 57.917969 Z M 33.871094 40.039062 C 37 38.433594 37.644531 38.09375 37.734375 38.007812 C 37.792969 37.949219 37.816406 37.871094 37.835938 37.691406 C 37.867188 37.320312 37.863281 33.472656 37.824219 33.449219 C 37.75 33.402344 36.4375 34.566406 35.550781 35.46875 C 34.027344 37.027344 32.753906 38.785156 31.707031 40.777344 C 31.566406 41.039062 31.46875 41.253906 31.480469 41.253906 C 31.496094 41.253906 32.570312 40.707031 33.871094 40.039062 Z M 33.871094 40.039062 "/><path style=" stroke:none;fill-rule:nonzero;fill:#ffffff;fill-opacity:1;" d="M 39.066406 56.765625 L 37.859375 55.5625 L 37.859375 40.710938 L 35.652344 41.824219 C 34.4375 42.4375 32.105469 43.621094 30.472656 44.453125 C 28.835938 45.285156 27.472656 45.96875 27.441406 45.96875 C 27.394531 45.96875 27.386719 45.945312 27.40625 45.871094 C 27.417969 45.820312 27.441406 45.652344 27.460938 45.507812 C 27.535156 44.871094 28.039062 43.203125 28.539062 41.957031 C 30.691406 36.570312 34.5625 32.179688 39.640625 29.359375 C 39.964844 29.179688 40.257812 29.03125 40.292969 29.03125 C 40.324219 29.03125 40.363281 29.058594 40.375 29.089844 C 40.386719 29.121094 40.394531 30.839844 40.394531 32.914062 L 40.394531 36.683594 L 40.472656 36.660156 C 40.589844 36.625 40.796875 36.515625 41.066406 36.347656 C 42.167969 35.679688 42.921875 34.644531 43.246094 33.367188 C 43.332031 33.011719 43.339844 32.925781 43.339844 32.265625 C 43.34375 31.503906 43.3125 31.292969 43.121094 30.710938 C 42.996094 30.339844 42.679688 29.738281 42.429688 29.410156 C 42.144531 29.023438 41.539062 28.378906 38.410156 25.140625 C 37.410156 24.101562 36.601562 23.230469 36.410156 22.976562 C 35.546875 21.847656 35.378906 20.554688 35.945312 19.355469 C 36.148438 18.929688 36.347656 18.652344 36.699219 18.308594 C 37.179688 17.847656 37.808594 17.5 38.316406 17.417969 C 38.734375 17.347656 39.417969 17.339844 39.8125 17.398438 C 40.753906 17.539062 41.636719 18.128906 42.382812 19.125 C 42.769531 19.636719 43.890625 21.449219 46.605469 25.929688 C 47.429688 27.289062 47.558594 27.554688 47.445312 27.667969 C 47.347656 27.765625 47.515625 27.933594 43.679688 23.921875 C 42.863281 23.066406 41.832031 21.984375 41.386719 21.511719 C 40.175781 20.222656 39.8125 19.878906 39.5625 19.785156 C 38.984375 19.570312 38.40625 19.800781 38.121094 20.359375 C 37.984375 20.621094 37.984375 20.960938 38.117188 21.25 C 38.230469 21.496094 38.058594 21.3125 41.265625 24.65625 C 42.679688 26.128906 43.9375 27.457031 44.066406 27.605469 C 44.9375 28.621094 45.523438 29.960938 45.699219 31.355469 C 45.777344 31.933594 45.757812 32.894531 45.664062 33.425781 C 45.394531 34.929688 44.710938 36.253906 43.660156 37.304688 C 43.011719 37.953125 42.472656 38.316406 41.164062 38.992188 L 40.414062 39.378906 L 40.394531 48.664062 C 40.386719 53.773438 40.371094 57.957031 40.367188 57.964844 C 40.324219 58.007812 40.117188 57.816406 39.066406 56.765625 Z M 33.988281 40 C 37.328125 38.289062 37.648438 38.117188 37.761719 37.996094 L 37.859375 37.890625 L 37.859375 35.640625 C 37.859375 34.402344 37.847656 33.390625 37.835938 33.390625 C 37.820312 33.390625 37.6875 33.492188 37.539062 33.613281 C 35.738281 35.082031 34.21875 36.746094 32.972656 38.609375 C 32.273438 39.660156 31.339844 41.328125 31.484375 41.273438 C 31.519531 41.257812 32.648438 40.683594 33.988281 40 Z M 33.988281 40 "/><path style=" stroke:none;fill-rule:nonzero;fill:#ffffff;fill-opacity:1;" d="M 39.671875 57.375 C 39.335938 57.042969 38.792969 56.492188 38.460938 56.144531 L 37.859375 55.511719 L 37.859375 48.113281 C 37.859375 44.046875 37.851562 40.714844 37.84375 40.714844 C 37.824219 40.714844 33.480469 42.917969 30.183594 44.597656 C 28.703125 45.351562 27.464844 45.96875 27.4375 45.96875 C 27.394531 45.96875 27.386719 45.945312 27.40625 45.875 C 27.417969 45.828125 27.441406 45.671875 27.460938 45.53125 C 27.476562 45.386719 27.554688 45.019531 27.636719 44.714844 C 28.035156 43.152344 28.574219 41.738281 29.390625 40.089844 C 29.90625 39.050781 30.351562 38.269531 30.945312 37.375 C 32.890625 34.425781 35.535156 31.871094 38.609375 29.972656 C 39.253906 29.570312 40.226562 29.03125 40.304688 29.03125 C 40.351562 29.03125 40.359375 29.394531 40.359375 32.839844 C 40.359375 36.0625 40.367188 36.648438 40.410156 36.664062 C 40.4375 36.675781 40.570312 36.628906 40.707031 36.558594 C 41.820312 35.996094 42.695312 35.007812 43.105469 33.847656 C 43.296875 33.300781 43.367188 32.871094 43.371094 32.265625 C 43.375 31.277344 43.117188 30.414062 42.578125 29.605469 C 42.296875 29.175781 41.992188 28.847656 39.484375 26.246094 C 36.824219 23.484375 36.511719 23.140625 36.191406 22.648438 C 35.804688 22.054688 35.632812 21.488281 35.632812 20.796875 C 35.632812 20.542969 35.65625 20.265625 35.691406 20.113281 C 35.933594 19.011719 36.65625 18.117188 37.691406 17.636719 C 38.144531 17.421875 38.515625 17.351562 39.121094 17.351562 C 39.984375 17.351562 40.589844 17.539062 41.28125 18.027344 C 42.078125 18.589844 42.371094 18.992188 44.378906 22.28125 C 46.679688 26.050781 47.40625 27.273438 47.453125 27.441406 C 47.476562 27.542969 47.496094 27.621094 47.492188 27.625 C 47.488281 27.625 47.457031 27.644531 47.425781 27.671875 C 47.371094 27.710938 47.339844 27.695312 47.179688 27.542969 C 46.925781 27.308594 42.617188 22.8125 41.28125 21.382812 C 40.078125 20.101562 39.898438 19.933594 39.589844 19.792969 C 39.042969 19.542969 38.394531 19.785156 38.117188 20.34375 C 38.035156 20.511719 38.019531 20.59375 38.019531 20.816406 C 38.019531 21.039062 38.035156 21.117188 38.125 21.292969 C 38.230469 21.503906 38.269531 21.546875 42.871094 26.34375 C 43.457031 26.953125 44.042969 27.589844 44.175781 27.753906 C 45.90625 29.910156 46.238281 32.855469 45.039062 35.351562 C 44.652344 36.152344 44.199219 36.769531 43.527344 37.414062 C 42.886719 38.027344 42.4375 38.328125 41.164062 38.984375 C 40.75 39.195312 40.402344 39.390625 40.386719 39.410156 C 40.371094 39.429688 40.359375 43.613281 40.359375 48.710938 C 40.359375 55.570312 40.347656 57.972656 40.316406 57.972656 C 40.296875 57.972656 40.003906 57.703125 39.671875 57.375 Z M 31.972656 41.042969 C 32.230469 40.90625 33.410156 40.300781 34.589844 39.695312 C 37.390625 38.257812 37.71875 38.082031 37.796875 37.988281 C 37.851562 37.917969 37.855469 37.738281 37.855469 35.652344 C 37.855469 34.394531 37.84375 33.390625 37.824219 33.390625 C 37.808594 33.390625 37.550781 33.601562 37.246094 33.851562 C 35.28125 35.5 33.664062 37.386719 32.363281 39.554688 C 32.058594 40.0625 31.425781 41.21875 31.425781 41.265625 C 31.425781 41.3125 31.515625 41.277344 31.972656 41.042969 Z M 31.972656 41.042969 "/><path style=" stroke:none;fill-rule:nonzero;fill:#ffffff;fill-opacity:1;" d="M 39.097656 56.785156 C 38.453125 56.132812 37.910156 55.558594 37.890625 55.515625 C 37.871094 55.460938 37.859375 52.664062 37.859375 48.074219 C 37.859375 44.027344 37.847656 40.714844 37.835938 40.714844 C 37.808594 40.714844 35.742188 41.761719 30.871094 44.242188 C 29 45.191406 27.453125 45.96875 27.425781 45.96875 C 27.394531 45.96875 27.390625 45.941406 27.402344 45.882812 C 27.414062 45.835938 27.441406 45.679688 27.460938 45.535156 C 27.59375 44.59375 28.246094 42.59375 28.90625 41.109375 C 30.863281 36.699219 33.925781 33.074219 37.949219 30.40625 C 38.941406 29.746094 40.246094 29.003906 40.324219 29.050781 C 40.34375 29.066406 40.359375 30.484375 40.359375 32.875 C 40.359375 36.320312 40.363281 36.679688 40.414062 36.679688 C 40.503906 36.679688 40.953125 36.441406 41.289062 36.222656 C 41.65625 35.980469 42.273438 35.371094 42.527344 34.996094 C 42.902344 34.449219 43.179688 33.777344 43.3125 33.113281 C 43.394531 32.691406 43.398438 31.808594 43.3125 31.386719 C 43.1875 30.757812 42.945312 30.160156 42.601562 29.632812 C 42.296875 29.171875 42.144531 29 39.34375 26.085938 C 36.703125 23.335938 36.65625 23.289062 36.359375 22.890625 C 35.574219 21.832031 35.417969 20.632812 35.910156 19.457031 C 36.339844 18.425781 37.367188 17.59375 38.441406 17.402344 C 38.8125 17.335938 39.429688 17.335938 39.824219 17.402344 C 40.394531 17.492188 40.964844 17.769531 41.523438 18.21875 C 42.203125 18.769531 42.457031 19.136719 44.753906 22.90625 C 47.148438 26.839844 47.425781 27.308594 47.453125 27.472656 C 47.476562 27.644531 47.445312 27.695312 47.328125 27.660156 C 47.289062 27.644531 46.722656 27.078125 46.066406 26.394531 C 43.734375 23.96875 42.363281 22.53125 41.375 21.476562 C 39.8125 19.808594 39.671875 19.695312 39.144531 19.691406 C 38.921875 19.691406 38.84375 19.707031 38.675781 19.789062 C 38.449219 19.898438 38.226562 20.121094 38.101562 20.355469 C 38.035156 20.480469 38.019531 20.570312 38.019531 20.796875 C 38.019531 21.210938 38.113281 21.378906 38.65625 21.949219 C 38.890625 22.199219 40.164062 23.527344 41.480469 24.898438 C 42.796875 26.273438 43.976562 27.519531 44.101562 27.671875 C 45.292969 29.09375 45.898438 31.058594 45.71875 32.898438 C 45.511719 34.949219 44.5 36.761719 42.875 37.972656 C 42.433594 38.300781 42.136719 38.472656 41.152344 38.980469 L 40.375 39.382812 L 40.367188 48.675781 C 40.359375 56.078125 40.351562 57.972656 40.316406 57.972656 C 40.289062 57.976562 39.742188 57.4375 39.097656 56.785156 Z M 33.929688 40.046875 C 37.199219 38.367188 37.691406 38.105469 37.777344 38.011719 L 37.859375 37.925781 L 37.859375 35.65625 C 37.859375 34.199219 37.84375 33.390625 37.824219 33.390625 C 37.773438 33.390625 36.929688 34.101562 36.328125 34.652344 C 34.824219 36.027344 33.328125 37.890625 32.238281 39.757812 C 31.878906 40.367188 31.425781 41.222656 31.425781 41.28125 C 31.425781 41.332031 31.285156 41.402344 33.929688 40.046875 Z M 33.929688 40.046875 "/><path style=" stroke:none;fill-rule:nonzero;fill:#ffffff;fill-opacity:1;" d="M 39.09375 56.773438 L 37.894531 55.5625 L 37.894531 48.160156 C 37.894531 43.164062 37.882812 40.75 37.855469 40.734375 C 37.820312 40.710938 35.65625 41.796875 30.402344 44.472656 C 28.785156 45.296875 27.449219 45.96875 27.425781 45.96875 C 27.402344 45.96875 27.394531 45.941406 27.402344 45.90625 C 27.414062 45.871094 27.441406 45.726562 27.460938 45.582031 C 27.578125 44.738281 28.109375 43.015625 28.660156 41.699219 C 29.773438 39.023438 31.261719 36.652344 33.125 34.570312 C 33.636719 34 34.859375 32.796875 35.394531 32.339844 C 36.375 31.5 37.425781 30.722656 38.464844 30.074219 C 39.179688 29.628906 40.1875 29.0625 40.28125 29.054688 C 40.335938 29.050781 40.34375 29.292969 40.359375 32.875 C 40.375 36.671875 40.378906 36.695312 40.449219 36.683594 C 40.542969 36.667969 40.996094 36.425781 41.300781 36.222656 C 41.648438 35.996094 42.335938 35.300781 42.570312 34.945312 C 42.921875 34.40625 43.179688 33.789062 43.3125 33.140625 C 43.402344 32.71875 43.402344 31.777344 43.3125 31.355469 C 43.144531 30.570312 42.765625 29.761719 42.308594 29.210938 C 42.085938 28.949219 41.300781 28.113281 39.5 26.246094 C 36.746094 23.382812 36.554688 23.171875 36.230469 22.6875 C 36 22.34375 35.851562 22.027344 35.742188 21.648438 C 35.671875 21.40625 35.660156 21.289062 35.664062 20.78125 C 35.664062 20.246094 35.675781 20.160156 35.761719 19.875 C 36.089844 18.800781 36.816406 18.003906 37.871094 17.566406 C 38.207031 17.429688 38.664062 17.351562 39.144531 17.351562 C 40.167969 17.351562 40.984375 17.699219 41.792969 18.484375 C 42.390625 19.0625 42.648438 19.457031 45.226562 23.695312 C 47.386719 27.25 47.425781 27.3125 47.453125 27.464844 C 47.480469 27.648438 47.433594 27.707031 47.308594 27.640625 C 47.207031 27.585938 43.671875 23.910156 41.5 21.601562 C 39.769531 19.765625 39.675781 19.691406 39.125 19.691406 C 38.769531 19.691406 38.5625 19.789062 38.292969 20.082031 C 38.066406 20.332031 37.984375 20.554688 38.007812 20.882812 C 38.03125 21.21875 38.152344 21.429688 38.5625 21.863281 C 38.753906 22.0625 40.042969 23.40625 41.425781 24.847656 C 42.808594 26.292969 44.035156 27.59375 44.15625 27.742188 C 44.496094 28.167969 44.777344 28.621094 45.019531 29.121094 C 46.515625 32.199219 45.617188 35.914062 42.882812 37.953125 C 42.425781 38.296875 42.191406 38.433594 41.203125 38.949219 L 40.375 39.378906 L 40.359375 48.652344 C 40.351562 53.757812 40.328125 57.941406 40.316406 57.957031 C 40.300781 57.96875 39.75 57.4375 39.09375 56.773438 Z M 34.085938 39.964844 C 37.507812 38.210938 37.714844 38.101562 37.800781 37.984375 C 37.875 37.890625 37.875 37.84375 37.886719 35.652344 C 37.890625 34.34375 37.882812 33.402344 37.863281 33.382812 C 37.796875 33.316406 36.628906 34.328125 35.714844 35.246094 C 34.378906 36.582031 33.316406 37.949219 32.316406 39.609375 C 31.84375 40.398438 31.359375 41.34375 31.449219 41.3125 C 31.484375 41.296875 32.675781 40.691406 34.085938 39.964844 Z M 34.085938 39.964844 "/><path style=" stroke:none;fill-rule:nonzero;fill:#ffffff;fill-opacity:1;" d="M 40.097656 57.789062 C 39.992188 57.683594 39.453125 57.136719 38.898438 56.574219 L 37.894531 55.554688 L 37.894531 48.136719 C 37.894531 41.546875 37.886719 40.714844 37.839844 40.714844 C 37.789062 40.714844 34.820312 42.210938 30.570312 44.378906 C 28.082031 45.648438 27.421875 45.976562 27.410156 45.964844 C 27.382812 45.933594 27.480469 45.441406 27.628906 44.824219 C 28.210938 42.414062 29.464844 39.617188 31.011719 37.304688 C 32.984375 34.34375 35.660156 31.789062 38.757812 29.898438 C 39.363281 29.527344 40.214844 29.070312 40.292969 29.070312 C 40.355469 29.070312 40.359375 29.164062 40.359375 32.871094 C 40.359375 35.40625 40.371094 36.683594 40.394531 36.695312 C 40.414062 36.710938 40.585938 36.636719 40.773438 36.539062 C 42.398438 35.683594 43.394531 34.058594 43.394531 32.257812 C 43.398438 31.144531 43.035156 30.121094 42.324219 29.234375 C 42.074219 28.925781 41.785156 28.613281 39.59375 26.335938 C 36.792969 23.421875 36.722656 23.347656 36.421875 22.949219 C 36.140625 22.578125 35.886719 22.09375 35.761719 21.691406 C 35.675781 21.402344 35.664062 21.3125 35.664062 20.816406 C 35.660156 20.148438 35.726562 19.851562 36 19.296875 C 36.332031 18.628906 36.863281 18.078125 37.527344 17.734375 C 38.0625 17.457031 38.511719 17.351562 39.148438 17.351562 C 40.425781 17.351562 41.515625 17.972656 42.429688 19.226562 C 42.8125 19.75 44.238281 22.058594 46.941406 26.535156 C 47.441406 27.359375 47.550781 27.613281 47.421875 27.660156 C 47.316406 27.699219 47.542969 27.929688 43.984375 24.207031 C 42.960938 23.136719 41.777344 21.894531 41.351562 21.441406 C 39.824219 19.8125 39.671875 19.691406 39.144531 19.691406 C 38.785156 19.691406 38.59375 19.765625 38.34375 20.011719 C 38.125 20.222656 38.03125 20.425781 38.007812 20.714844 C 37.988281 21 38.039062 21.210938 38.179688 21.421875 C 38.234375 21.503906 39.097656 22.425781 40.09375 23.46875 C 41.09375 24.511719 42.359375 25.832031 42.910156 26.40625 C 43.457031 26.972656 44 27.558594 44.117188 27.699219 C 44.84375 28.589844 45.347656 29.65625 45.59375 30.820312 C 45.671875 31.191406 45.691406 31.390625 45.707031 32.007812 C 45.71875 32.480469 45.710938 32.875 45.683594 33.097656 C 45.488281 34.691406 44.777344 36.15625 43.644531 37.285156 C 42.996094 37.9375 42.496094 38.273438 41 39.050781 L 40.375 39.375 L 40.359375 48.652344 C 40.351562 53.757812 40.332031 57.941406 40.316406 57.953125 C 40.304688 57.964844 40.207031 57.890625 40.097656 57.789062 Z M 33.671875 40.191406 C 36.949219 38.507812 37.613281 38.160156 37.75 38.042969 L 37.875 37.9375 L 37.882812 35.675781 C 37.890625 34.402344 37.882812 33.402344 37.863281 33.382812 C 37.828125 33.347656 37.476562 33.617188 36.847656 34.171875 C 35.050781 35.742188 33.539062 37.558594 32.3125 39.609375 C 32.039062 40.0625 31.390625 41.253906 31.390625 41.300781 C 31.390625 41.3125 31.40625 41.324219 31.425781 41.324219 C 31.445312 41.324219 32.457031 40.8125 33.671875 40.191406 Z M 33.671875 40.191406 "/><path style=" stroke:none;fill-rule:nonzero;fill:#ffffff;fill-opacity:1;" d="M 39.097656 56.753906 L 37.894531 55.53125 L 37.894531 48.132812 C 37.894531 44.058594 37.882812 40.71875 37.871094 40.703125 C 37.84375 40.679688 35.640625 41.785156 30.429688 44.441406 C 28.773438 45.285156 27.414062 45.96875 27.40625 45.960938 C 27.382812 45.933594 27.605469 44.898438 27.746094 44.378906 C 28.636719 41.15625 30.371094 37.859375 32.570312 35.230469 C 34.058594 33.449219 35.945312 31.753906 37.875 30.472656 C 38.871094 29.808594 40.207031 29.042969 40.304688 29.082031 C 40.351562 29.101562 40.359375 29.539062 40.359375 32.910156 C 40.359375 35.960938 40.367188 36.714844 40.402344 36.714844 C 40.476562 36.714844 40.964844 36.460938 41.234375 36.277344 C 42.359375 35.53125 43.105469 34.386719 43.339844 33.050781 C 43.410156 32.636719 43.410156 31.859375 43.339844 31.445312 C 43.261719 31.003906 43.070312 30.445312 42.855469 30.03125 C 42.488281 29.335938 42.339844 29.164062 39.019531 25.726562 C 36.660156 23.28125 36.28125 22.847656 35.984375 22.234375 C 35.738281 21.734375 35.664062 21.371094 35.664062 20.761719 C 35.667969 20.164062 35.738281 19.867188 35.984375 19.351562 C 36.195312 18.914062 36.390625 18.644531 36.734375 18.3125 C 37.402344 17.679688 38.21875 17.351562 39.140625 17.351562 C 40.117188 17.347656 40.992188 17.722656 41.78125 18.472656 C 42.308594 18.972656 42.695312 19.5625 45.054688 23.441406 C 47.488281 27.4375 47.53125 27.507812 47.453125 27.636719 C 47.410156 27.699219 47.367188 27.683594 47.195312 27.523438 C 46.96875 27.316406 42.59375 22.75 41.257812 21.324219 C 40.105469 20.09375 39.84375 19.855469 39.542969 19.742188 C 38.964844 19.527344 38.347656 19.792969 38.078125 20.382812 C 37.890625 20.792969 37.980469 21.230469 38.339844 21.640625 C 38.433594 21.746094 39.730469 23.105469 41.21875 24.65625 C 42.707031 26.207031 44.003906 27.574219 44.101562 27.695312 C 44.761719 28.488281 45.292969 29.570312 45.542969 30.617188 C 45.867188 32.007812 45.746094 33.578125 45.203125 34.921875 C 44.828125 35.851562 44.375 36.527344 43.632812 37.269531 C 42.910156 37.988281 42.492188 38.273438 41.117188 38.980469 L 40.359375 39.371094 L 40.355469 48.625 C 40.355469 53.71875 40.34375 57.90625 40.328125 57.929688 C 40.308594 57.964844 39.953125 57.625 39.097656 56.753906 Z M 35.464844 39.277344 C 37.597656 38.175781 37.761719 38.089844 37.832031 37.964844 C 37.886719 37.875 37.894531 37.648438 37.894531 35.609375 C 37.894531 33.820312 37.882812 33.355469 37.847656 33.355469 C 37.824219 33.355469 37.546875 33.570312 37.234375 33.835938 C 35.226562 35.511719 33.589844 37.441406 32.253906 39.691406 C 31.921875 40.25 31.390625 41.253906 31.390625 41.320312 C 31.390625 41.363281 32.253906 40.929688 35.464844 39.277344 Z M 35.464844 39.277344 "/><path style=" stroke:none;fill-rule:nonzero;fill:#ffffff;fill-opacity:1;" d="M 39.097656 56.746094 L 37.894531 55.515625 L 37.894531 48.097656 C 37.894531 43.09375 37.882812 40.679688 37.855469 40.679688 C 37.820312 40.679688 34.785156 42.214844 30.085938 44.605469 C 28.671875 45.324219 27.492188 45.921875 27.464844 45.929688 C 27.398438 45.945312 27.425781 45.757812 27.585938 45.054688 C 28.085938 42.898438 29.117188 40.429688 30.40625 38.285156 C 32.566406 34.703125 35.644531 31.703125 39.316406 29.589844 C 39.769531 29.328125 40.261719 29.070312 40.304688 29.070312 C 40.316406 29.070312 40.320312 30.765625 40.320312 32.835938 C 40.320312 34.90625 40.332031 36.625 40.34375 36.660156 C 40.375 36.742188 40.4375 36.730469 40.726562 36.585938 C 42.066406 35.914062 43.011719 34.675781 43.328125 33.167969 C 43.4375 32.652344 43.4375 31.84375 43.328125 31.332031 C 43.191406 30.675781 42.980469 30.160156 42.628906 29.621094 C 42.324219 29.152344 42.210938 29.03125 39.429688 26.140625 C 36.335938 22.921875 36.308594 22.890625 35.980469 22.203125 C 35.75 21.714844 35.667969 21.332031 35.667969 20.78125 C 35.675781 19.859375 36.015625 19.046875 36.671875 18.390625 C 37.332031 17.730469 38.085938 17.398438 39 17.359375 C 39.917969 17.324219 40.722656 17.609375 41.527344 18.261719 C 42.179688 18.785156 42.433594 19.15625 44.796875 23.03125 C 46.871094 26.433594 47.410156 27.34375 47.445312 27.472656 C 47.546875 27.882812 47.382812 27.730469 44.910156 25.148438 C 41.878906 21.980469 42.066406 22.179688 41.191406 21.242188 C 40.128906 20.109375 39.917969 19.910156 39.621094 19.773438 C 39.144531 19.546875 38.671875 19.640625 38.304688 20.03125 C 38.066406 20.289062 37.984375 20.488281 37.984375 20.816406 C 37.984375 21.207031 38.089844 21.398438 38.585938 21.917969 C 38.804688 22.144531 40.074219 23.476562 41.410156 24.867188 C 42.75 26.261719 43.945312 27.523438 44.070312 27.671875 C 45.179688 28.996094 45.773438 30.746094 45.707031 32.480469 C 45.628906 34.398438 44.855469 36.132812 43.492188 37.417969 C 42.894531 37.980469 42.351562 38.335938 41.089844 38.980469 C 40.71875 39.171875 40.398438 39.34375 40.375 39.363281 C 40.351562 39.386719 40.332031 42.566406 40.320312 48.6875 L 40.304688 57.980469 Z M 33.707031 40.191406 C 37.203125 38.398438 37.652344 38.160156 37.777344 38.046875 L 37.894531 37.9375 L 37.894531 35.648438 C 37.894531 33.664062 37.886719 33.355469 37.84375 33.355469 C 37.769531 33.355469 36.992188 34.003906 36.308594 34.632812 C 34.421875 36.367188 32.683594 38.6875 31.496094 41.046875 C 31.34375 41.347656 31.339844 41.359375 31.390625 41.359375 C 31.414062 41.359375 32.453125 40.832031 33.707031 40.191406 Z M 33.707031 40.191406 "/><path style=" stroke:none;fill-rule:nonzero;fill:#ffffff;fill-opacity:1;" d="M 39.117188 56.757812 L 37.929688 55.550781 L 37.929688 48.132812 C 37.929688 41.632812 37.921875 40.710938 37.878906 40.695312 C 37.824219 40.671875 35.945312 41.613281 30.429688 44.421875 C 28.792969 45.253906 27.445312 45.929688 27.433594 45.917969 C 27.390625 45.871094 27.699219 44.550781 27.941406 43.773438 C 28.925781 40.613281 30.628906 37.519531 32.769531 35.019531 C 33.339844 34.347656 34.785156 32.902344 35.445312 32.335938 C 36.4375 31.484375 37.449219 30.742188 38.5 30.089844 C 39.238281 29.628906 40.25 29.066406 40.292969 29.089844 C 40.308594 29.101562 40.320312 30.8125 40.320312 32.890625 C 40.320312 35.433594 40.335938 36.683594 40.359375 36.695312 C 40.425781 36.738281 40.597656 36.675781 40.917969 36.492188 C 42.183594 35.769531 43.027344 34.621094 43.328125 33.214844 C 43.390625 32.910156 43.410156 32.726562 43.410156 32.246094 C 43.410156 31.367188 43.273438 30.808594 42.871094 30.03125 C 42.519531 29.347656 42.46875 29.289062 39.609375 26.316406 C 36.707031 23.300781 36.5 23.070312 36.175781 22.550781 C 35.804688 21.945312 35.65625 21.386719 35.6875 20.65625 C 35.710938 20.109375 35.773438 19.847656 35.980469 19.398438 C 36.277344 18.765625 36.675781 18.296875 37.226562 17.9375 C 38.679688 16.992188 40.425781 17.203125 41.757812 18.484375 C 42.121094 18.835938 42.457031 19.265625 42.859375 19.902344 C 43.691406 21.210938 47.300781 27.148438 47.402344 27.371094 C 47.558594 27.71875 47.417969 27.730469 47.078125 27.398438 C 46.867188 27.191406 45.320312 25.578125 42.769531 22.90625 C 42.394531 22.511719 41.75 21.828125 41.335938 21.386719 C 39.832031 19.785156 39.671875 19.660156 39.144531 19.65625 C 38.820312 19.65625 38.550781 19.761719 38.328125 19.988281 C 37.882812 20.433594 37.851562 21.0625 38.25 21.558594 C 38.324219 21.648438 39.042969 22.410156 39.84375 23.246094 C 40.644531 24.078125 41.886719 25.375 42.605469 26.121094 C 43.320312 26.867188 44.003906 27.601562 44.125 27.746094 C 44.925781 28.75 45.4375 29.921875 45.636719 31.1875 C 45.730469 31.789062 45.71875 32.804688 45.613281 33.410156 C 45.253906 35.476562 44.082031 37.210938 42.3125 38.3125 C 42.132812 38.421875 41.65625 38.679688 41.253906 38.886719 C 40.847656 39.09375 40.472656 39.292969 40.421875 39.332031 L 40.324219 39.398438 L 40.304688 57.964844 Z M 33.976562 40.0625 C 37.171875 38.421875 37.679688 38.152344 37.785156 38.054688 C 37.847656 37.988281 37.878906 37.910156 37.898438 37.761719 C 37.929688 37.507812 37.9375 33.511719 37.90625 33.402344 C 37.894531 33.355469 37.871094 33.320312 37.855469 33.320312 C 37.835938 33.320312 37.636719 33.476562 37.402344 33.664062 C 35.269531 35.410156 33.460938 37.546875 32.089844 39.941406 C 31.773438 40.496094 31.355469 41.292969 31.355469 41.34375 C 31.355469 41.398438 31.632812 41.265625 33.976562 40.0625 Z M 33.976562 40.0625 "/><path style=" stroke:none;fill-rule:nonzero;fill:#ffffff;fill-opacity:1;" d="M 39.125 56.765625 L 37.949219 55.578125 L 37.929688 48.136719 C 37.914062 41.445312 37.90625 40.695312 37.855469 40.6875 C 37.800781 40.679688 35.65625 41.753906 30.195312 44.535156 C 28.738281 45.277344 27.523438 45.894531 27.488281 45.90625 C 27.40625 45.9375 27.40625 45.902344 27.496094 45.496094 C 28.179688 42.394531 29.636719 39.214844 31.617188 36.484375 C 33.242188 34.242188 35.464844 32.109375 37.824219 30.53125 C 38.691406 29.953125 40.144531 29.105469 40.269531 29.105469 C 40.316406 29.105469 40.320312 29.59375 40.320312 32.90625 C 40.320312 36.148438 40.332031 36.710938 40.375 36.726562 C 40.4375 36.75 40.859375 36.546875 41.191406 36.335938 C 42.648438 35.394531 43.496094 33.757812 43.417969 32.050781 C 43.375 31.085938 43.082031 30.226562 42.527344 29.457031 C 42.265625 29.09375 41.894531 28.6875 40.21875 26.945312 C 39.539062 26.238281 38.75 25.417969 38.464844 25.121094 C 36.6875 23.269531 36.28125 22.796875 36.027344 22.28125 C 35.75 21.707031 35.660156 21.265625 35.6875 20.617188 C 35.726562 19.773438 36.039062 19.0625 36.640625 18.445312 C 36.980469 18.09375 37.257812 17.890625 37.683594 17.691406 C 38.226562 17.433594 38.527344 17.371094 39.160156 17.371094 C 39.636719 17.375 39.734375 17.382812 40.019531 17.46875 C 40.679688 17.667969 41.234375 17.992188 41.738281 18.46875 C 42.273438 18.976562 42.558594 19.398438 44.378906 22.367188 C 45.894531 24.851562 47.371094 27.296875 47.417969 27.414062 C 47.527344 27.675781 47.429688 27.71875 47.195312 27.507812 C 47.019531 27.347656 43.1875 23.34375 41.699219 21.765625 C 39.792969 19.742188 39.6875 19.652344 39.125 19.65625 C 38.78125 19.65625 38.570312 19.746094 38.320312 19.992188 C 38.066406 20.246094 37.984375 20.453125 37.984375 20.816406 C 37.984375 21.078125 38 21.144531 38.082031 21.308594 C 38.207031 21.546875 38.09375 21.425781 41.210938 24.675781 C 42.632812 26.160156 43.90625 27.5 44.039062 27.65625 C 45.207031 29.039062 45.832031 30.964844 45.683594 32.734375 C 45.507812 34.878906 44.527344 36.675781 42.839844 37.949219 C 42.464844 38.230469 42.042969 38.480469 41.175781 38.925781 C 40.75 39.144531 40.382812 39.347656 40.363281 39.371094 C 40.332031 39.40625 40.320312 42.070312 40.316406 48.6875 L 40.304688 57.953125 Z M 33.488281 40.316406 C 37.039062 38.496094 37.621094 38.1875 37.769531 38.0625 L 37.910156 37.9375 L 37.921875 35.710938 C 37.929688 34.484375 37.925781 33.449219 37.914062 33.402344 C 37.902344 33.355469 37.875 33.320312 37.855469 33.320312 C 37.800781 33.320312 37.164062 33.847656 36.589844 34.363281 C 34.589844 36.160156 32.980469 38.230469 31.660156 40.703125 C 31.390625 41.210938 31.316406 41.394531 31.371094 41.394531 C 31.378906 41.394531 32.332031 40.910156 33.488281 40.316406 Z M 33.488281 40.316406 "/><path style=" stroke:none;fill-rule:nonzero;fill:#ffffff;fill-opacity:1;" d="M 39.117188 56.746094 L 37.929688 55.53125 L 37.929688 48.109375 C 37.929688 43.167969 37.917969 40.679688 37.894531 40.660156 C 37.859375 40.644531 34.855469 42.152344 29.40625 44.925781 C 28.328125 45.476562 27.4375 45.914062 27.429688 45.894531 C 27.414062 45.84375 27.664062 44.785156 27.839844 44.164062 C 28.738281 41.023438 30.460938 37.792969 32.589844 35.25 C 34.378906 33.113281 36.550781 31.261719 38.949219 29.828125 C 39.554688 29.46875 40.222656 29.105469 40.28125 29.105469 C 40.3125 29.105469 40.320312 30.074219 40.320312 32.910156 C 40.320312 36.179688 40.332031 36.71875 40.375 36.734375 C 40.402344 36.746094 40.554688 36.691406 40.714844 36.613281 C 42.085938 35.917969 43.011719 34.722656 43.339844 33.214844 C 43.429688 32.808594 43.449219 31.949219 43.382812 31.53125 C 43.234375 30.621094 42.847656 29.78125 42.269531 29.105469 C 42.035156 28.832031 41.1875 27.933594 39.605469 26.300781 C 36.503906 23.082031 36.320312 22.871094 35.996094 22.199219 C 35.808594 21.804688 35.710938 21.414062 35.6875 20.957031 C 35.664062 20.5 35.714844 20.160156 35.871094 19.699219 C 36.039062 19.210938 36.277344 18.828125 36.660156 18.4375 C 37.132812 17.953125 37.597656 17.675781 38.277344 17.46875 C 38.550781 17.386719 38.652344 17.375 39.109375 17.371094 C 39.5625 17.371094 39.667969 17.382812 39.964844 17.464844 C 40.625 17.644531 41.21875 17.980469 41.734375 18.460938 C 42.238281 18.933594 42.574219 19.433594 44.359375 22.351562 C 45.617188 24.410156 47.378906 27.328125 47.425781 27.4375 C 47.527344 27.675781 47.433594 27.707031 47.210938 27.507812 C 47.011719 27.324219 42.679688 22.800781 41.335938 21.367188 C 40.148438 20.101562 39.929688 19.894531 39.648438 19.753906 C 39.230469 19.546875 38.722656 19.621094 38.363281 19.941406 C 37.867188 20.386719 37.828125 21.078125 38.269531 21.597656 C 38.359375 21.703125 39.660156 23.066406 41.160156 24.632812 C 42.660156 26.199219 43.980469 27.589844 44.09375 27.730469 C 44.898438 28.707031 45.449219 29.976562 45.628906 31.269531 C 45.703125 31.785156 45.683594 32.992188 45.601562 33.445312 C 45.261719 35.230469 44.402344 36.683594 43.035156 37.785156 C 42.578125 38.152344 42.183594 38.390625 41.199219 38.902344 C 40.746094 39.136719 40.363281 39.339844 40.351562 39.355469 C 40.335938 39.367188 40.320312 43.5625 40.320312 48.675781 C 40.320312 53.789062 40.320312 57.96875 40.316406 57.96875 C 40.308594 57.96875 39.769531 57.417969 39.117188 56.746094 Z M 33.78125 40.175781 C 36.324219 38.867188 37.515625 38.253906 37.710938 38.136719 C 37.933594 38 37.929688 38.050781 37.929688 35.589844 C 37.929688 33.625 37.921875 33.351562 37.875 33.332031 C 37.777344 33.296875 36.613281 34.289062 35.761719 35.136719 C 34.085938 36.804688 32.71875 38.667969 31.601562 40.808594 C 31.355469 41.28125 31.3125 41.394531 31.386719 41.394531 C 31.394531 41.394531 32.472656 40.847656 33.78125 40.175781 Z M 33.78125 40.175781 "/></g><path style=" stroke:none;fill-rule:nonzero;fill:#ffffff;fill-opacity:1;" d="M 39.078125 56.691406 L 37.929688 55.511719 L 37.929688 48.078125 C 37.929688 41.785156 37.921875 40.644531 37.878906 40.644531 C 37.832031 40.644531 35.785156 41.675781 30.945312 44.136719 C 29.726562 44.757812 28.433594 45.414062 28.070312 45.601562 C 27.476562 45.910156 27.417969 45.933594 27.433594 45.855469 C 28.03125 43.046875 29.089844 40.4375 30.664062 37.917969 C 32.464844 35.035156 34.964844 32.464844 37.863281 30.523438 C 38.753906 29.925781 40.21875 29.078125 40.285156 29.125 C 40.308594 29.136719 40.320312 30.488281 40.320312 32.929688 C 40.320312 36.4375 40.328125 36.71875 40.382812 36.742188 C 40.457031 36.765625 40.90625 36.542969 41.304688 36.277344 C 41.671875 36.035156 42.195312 35.53125 42.488281 35.144531 C 42.910156 34.585938 43.25 33.78125 43.375 33.074219 C 43.449219 32.632812 43.449219 31.863281 43.375 31.425781 C 43.25 30.707031 42.933594 29.96875 42.492188 29.382812 C 42.203125 28.996094 41.859375 28.628906 39.464844 26.140625 C 37.378906 23.96875 37.070312 23.644531 36.726562 23.253906 C 36.207031 22.660156 35.914062 22.125 35.761719 21.5 C 35.667969 21.136719 35.679688 20.417969 35.78125 20.015625 C 36.023438 19.027344 36.695312 18.199219 37.625 17.734375 C 37.851562 17.621094 37.976562 17.574219 38.5 17.417969 C 38.605469 17.386719 38.832031 17.367188 39.144531 17.371094 C 39.730469 17.371094 40.09375 17.464844 40.699219 17.761719 C 41.363281 18.085938 41.867188 18.53125 42.378906 19.226562 C 42.753906 19.742188 43.59375 21.097656 46.175781 25.351562 C 47.207031 27.054688 47.46875 27.507812 47.46875 27.601562 C 47.46875 27.703125 47.289062 27.574219 46.949219 27.230469 C 46.347656 26.625 42.613281 22.714844 41.480469 21.511719 C 40.28125 20.230469 39.929688 19.886719 39.675781 19.753906 C 39.503906 19.667969 39.445312 19.65625 39.144531 19.65625 C 38.734375 19.65625 38.558594 19.726562 38.28125 20.019531 C 38.039062 20.277344 37.953125 20.480469 37.949219 20.796875 C 37.949219 21.179688 38.082031 21.429688 38.542969 21.910156 C 38.746094 22.125 40 23.429688 41.328125 24.816406 C 42.65625 26.203125 43.835938 27.445312 43.953125 27.578125 C 44.792969 28.550781 45.359375 29.738281 45.582031 31 C 45.671875 31.527344 45.707031 32.433594 45.648438 32.96875 C 45.472656 34.671875 44.667969 36.296875 43.4375 37.429688 C 42.820312 37.996094 42.402344 38.269531 41.132812 38.929688 L 40.339844 39.339844 L 40.320312 48.589844 C 40.308594 55.214844 40.292969 57.847656 40.265625 57.855469 C 40.246094 57.863281 39.710938 57.335938 39.078125 56.691406 Z M 31.9375 41.128906 C 32.214844 40.984375 33.410156 40.371094 34.589844 39.765625 C 37.347656 38.351562 37.714844 38.160156 37.820312 38.050781 L 37.910156 37.964844 L 37.910156 35.652344 C 37.910156 33.523438 37.90625 33.335938 37.851562 33.328125 C 37.820312 33.320312 37.570312 33.5 37.261719 33.757812 C 35.246094 35.441406 33.636719 37.320312 32.292969 39.554688 C 31.9375 40.148438 31.320312 41.289062 31.320312 41.351562 C 31.320312 41.433594 31.433594 41.394531 31.9375 41.128906 Z M 31.9375 41.128906 "/><path style=" stroke:none;fill-rule:nonzero;fill:#ffffff;fill-opacity:1;" d="M 39.097656 56.695312 L 37.929688 55.523438 L 37.929688 48.085938 C 37.929688 41.210938 37.925781 40.644531 37.871094 40.644531 C 37.835938 40.644531 36.980469 41.066406 35.96875 41.578125 C 32.535156 43.316406 27.660156 45.796875 27.535156 45.867188 L 27.417969 45.933594 L 27.4375 45.851562 C 27.445312 45.808594 27.503906 45.5625 27.5625 45.308594 C 28.304688 42.113281 29.8125 38.921875 31.871094 36.183594 C 33.957031 33.410156 36.863281 30.921875 39.902344 29.300781 L 40.285156 29.097656 L 40.285156 32.867188 C 40.285156 34.941406 40.296875 36.664062 40.308594 36.695312 C 40.34375 36.78125 40.460938 36.757812 40.765625 36.605469 C 42.144531 35.894531 43.085938 34.632812 43.378906 33.105469 C 43.472656 32.613281 43.46875 31.8125 43.363281 31.332031 C 43.210938 30.609375 42.910156 29.921875 42.507812 29.378906 C 42.246094 29.03125 41.84375 28.601562 39.734375 26.40625 C 36.828125 23.382812 36.601562 23.136719 36.292969 22.683594 C 35.375 21.332031 35.53125 19.613281 36.671875 18.445312 C 37.121094 17.984375 37.730469 17.625 38.289062 17.492188 C 38.394531 17.464844 38.5 17.429688 38.523438 17.410156 C 38.589844 17.363281 39.316406 17.339844 39.535156 17.378906 C 40.367188 17.527344 41.125 17.910156 41.738281 18.5 C 42.34375 19.082031 42.570312 19.433594 46.011719 25.097656 C 46.753906 26.320312 47.363281 27.332031 47.363281 27.34375 C 47.363281 27.351562 47.386719 27.414062 47.417969 27.484375 C 47.570312 27.800781 47.308594 27.605469 46.636719 26.90625 C 46.320312 26.570312 45.195312 25.398438 44.144531 24.296875 C 43.09375 23.199219 41.867188 21.910156 41.421875 21.441406 C 40.472656 20.429688 39.925781 19.890625 39.746094 19.785156 C 39.554688 19.671875 39.199219 19.589844 39.003906 19.617188 C 38.605469 19.675781 38.21875 19.964844 38.042969 20.34375 C 37.910156 20.628906 37.90625 21 38.039062 21.28125 C 38.152344 21.523438 38.125 21.488281 41.070312 24.566406 C 43.835938 27.453125 43.972656 27.59375 44.1875 27.875 C 45.207031 29.199219 45.738281 30.859375 45.671875 32.5 C 45.570312 34.882812 44.40625 36.917969 42.394531 38.222656 C 42.226562 38.332031 41.714844 38.617188 41.253906 38.855469 C 40.789062 39.097656 40.386719 39.316406 40.351562 39.347656 C 40.292969 39.402344 40.285156 39.875 40.277344 48.636719 L 40.269531 57.867188 Z M 33.785156 40.191406 C 37.375 38.351562 37.683594 38.1875 37.8125 38.050781 L 37.929688 37.929688 L 37.917969 35.617188 C 37.914062 33.929688 37.902344 33.304688 37.871094 33.296875 C 37.847656 33.289062 37.632812 33.441406 37.390625 33.640625 C 34.992188 35.605469 33.046875 38 31.601562 40.773438 C 31.3125 41.324219 31.269531 41.457031 31.382812 41.414062 C 31.414062 41.402344 32.5 40.851562 33.785156 40.191406 Z M 33.785156 40.191406 "/><path style=" stroke:none;fill-rule:nonzero;fill:#ffffff;fill-opacity:1;" d="M 39.117188 56.710938 L 37.964844 55.558594 L 37.964844 48.152344 C 37.964844 42.992188 37.953125 40.726562 37.925781 40.675781 C 37.890625 40.609375 37.746094 40.679688 35.542969 41.792969 C 34.25 42.441406 31.921875 43.625 30.367188 44.417969 C 28.808594 45.210938 27.519531 45.859375 27.5 45.859375 C 27.484375 45.859375 27.460938 45.882812 27.449219 45.90625 C 27.4375 45.933594 27.429688 45.921875 27.429688 45.886719 C 27.425781 45.851562 27.441406 45.796875 27.460938 45.761719 C 27.476562 45.730469 27.535156 45.5 27.589844 45.253906 C 27.90625 43.761719 28.566406 41.925781 29.382812 40.25 C 31.636719 35.644531 35.144531 31.960938 39.683594 29.429688 C 39.972656 29.269531 40.226562 29.140625 40.246094 29.140625 C 40.277344 29.140625 40.285156 30.171875 40.285156 32.925781 C 40.285156 37.300781 40.242188 36.871094 40.679688 36.660156 C 42.078125 35.988281 43.070312 34.691406 43.382812 33.121094 C 43.476562 32.648438 43.46875 31.777344 43.367188 31.292969 C 43.1875 30.46875 42.792969 29.667969 42.25 29.050781 C 42.007812 28.769531 41.183594 27.90625 39.519531 26.175781 C 36.570312 23.113281 36.332031 22.847656 36.035156 22.230469 C 35.828125 21.792969 35.746094 21.472656 35.722656 20.96875 C 35.691406 20.300781 35.792969 19.832031 36.078125 19.261719 C 36.308594 18.808594 36.761719 18.289062 37.191406 17.996094 C 37.445312 17.824219 37.96875 17.582031 38.238281 17.511719 C 38.371094 17.480469 38.511719 17.4375 38.539062 17.421875 C 38.640625 17.371094 39.257812 17.34375 39.484375 17.378906 C 40.328125 17.519531 41.09375 17.898438 41.71875 18.484375 C 42.265625 19 42.648438 19.578125 45.183594 23.746094 C 47.308594 27.242188 47.46875 27.511719 47.46875 27.609375 C 47.46875 27.648438 47.359375 27.601562 47.253906 27.519531 C 47.117188 27.40625 43.050781 23.164062 41.515625 21.53125 C 39.851562 19.765625 39.671875 19.621094 39.144531 19.621094 C 38.910156 19.621094 38.839844 19.632812 38.636719 19.738281 C 38.371094 19.867188 38.160156 20.078125 38.03125 20.347656 C 37.960938 20.480469 37.949219 20.570312 37.949219 20.816406 C 37.949219 21.078125 37.960938 21.144531 38.046875 21.308594 C 38.175781 21.550781 38.113281 21.488281 40.964844 24.460938 C 43.914062 27.53125 43.980469 27.605469 44.230469 27.941406 C 46.207031 30.566406 46.144531 34.203125 44.074219 36.730469 C 43.820312 37.039062 43.3125 37.542969 43.003906 37.789062 C 42.53125 38.160156 41.957031 38.503906 40.878906 39.050781 C 40.621094 39.179688 40.386719 39.300781 40.359375 39.320312 C 40.308594 39.351562 40.304688 40.4375 40.285156 48.613281 L 40.269531 57.867188 Z M 33.75 40.214844 C 37.167969 38.460938 37.714844 38.171875 37.824219 38.066406 C 37.957031 37.929688 37.964844 37.808594 37.964844 35.445312 C 37.964844 33.800781 37.953125 33.394531 37.917969 33.339844 C 37.890625 33.304688 37.851562 33.28125 37.832031 33.289062 C 37.707031 33.332031 36.519531 34.371094 35.878906 35 C 34.820312 36.039062 34.078125 36.902344 33.269531 38.035156 C 32.621094 38.949219 31.976562 40.007812 31.519531 40.921875 C 31.328125 41.304688 31.285156 41.429688 31.347656 41.429688 C 31.363281 41.429688 32.445312 40.882812 33.75 40.214844 Z M 33.75 40.214844 "/><path style=" stroke:none;fill-rule:nonzero;fill:#ffffff;fill-opacity:1;" d="M 39.09375 56.679688 L 37.964844 55.527344 L 37.964844 48.125 C 37.964844 44.054688 37.953125 40.695312 37.941406 40.667969 C 37.929688 40.632812 37.90625 40.609375 37.890625 40.609375 C 37.855469 40.609375 35.476562 41.8125 30.050781 44.570312 C 28.636719 45.285156 27.464844 45.890625 27.453125 45.910156 C 27.4375 45.933594 27.425781 45.925781 27.425781 45.890625 C 27.425781 45.855469 27.4375 45.820312 27.457031 45.808594 C 27.472656 45.800781 27.5 45.710938 27.511719 45.621094 C 27.609375 44.976562 28.132812 43.226562 28.550781 42.164062 C 29.804688 38.960938 31.65625 36.109375 34.035156 33.710938 C 35.554688 32.183594 37.195312 30.898438 39 29.828125 C 39.496094 29.535156 40.222656 29.140625 40.261719 29.140625 C 40.277344 29.140625 40.285156 30.839844 40.285156 32.921875 C 40.285156 36.289062 40.292969 36.710938 40.34375 36.753906 C 40.421875 36.816406 41.050781 36.496094 41.5 36.160156 C 43.714844 34.492188 44.117188 31.367188 42.394531 29.21875 C 42.15625 28.917969 41.550781 28.277344 39.679688 26.335938 C 36.605469 23.148438 36.375 22.890625 36.0625 22.261719 C 35.816406 21.769531 35.714844 21.332031 35.714844 20.78125 C 35.714844 19.515625 36.457031 18.339844 37.625 17.75 C 37.855469 17.636719 38.386719 17.457031 38.5 17.457031 C 38.535156 17.457031 38.574219 17.4375 38.582031 17.414062 C 38.597656 17.359375 39.5625 17.351562 39.683594 17.40625 C 39.730469 17.429688 39.898438 17.480469 40.054688 17.527344 C 40.929688 17.769531 41.726562 18.359375 42.367188 19.246094 C 42.679688 19.675781 43.496094 20.988281 45.097656 23.621094 C 47.1875 27.054688 47.375 27.367188 47.390625 27.449219 C 47.398438 27.496094 47.417969 27.53125 47.4375 27.53125 C 47.453125 27.53125 47.46875 27.558594 47.464844 27.59375 C 47.464844 27.632812 47.457031 27.640625 47.445312 27.613281 C 47.433594 27.589844 47.410156 27.578125 47.390625 27.589844 C 47.371094 27.601562 47.316406 27.574219 47.265625 27.527344 C 47.09375 27.367188 42.480469 22.550781 41.40625 21.40625 C 40.175781 20.09375 39.945312 19.867188 39.65625 19.726562 C 39.476562 19.636719 39.40625 19.621094 39.144531 19.621094 C 38.882812 19.621094 38.8125 19.632812 38.640625 19.71875 C 38.410156 19.828125 38.152344 20.085938 38.035156 20.316406 C 37.976562 20.425781 37.949219 20.558594 37.9375 20.746094 C 37.917969 21.070312 38 21.320312 38.207031 21.570312 C 38.285156 21.664062 39.578125 23.023438 41.082031 24.589844 C 42.585938 26.160156 43.917969 27.5625 44.042969 27.710938 C 45.183594 29.074219 45.789062 30.976562 45.648438 32.75 C 45.503906 34.519531 44.769531 36.109375 43.550781 37.289062 C 42.898438 37.917969 42.484375 38.199219 41.289062 38.820312 C 40.824219 39.0625 40.410156 39.28125 40.367188 39.308594 L 40.285156 39.359375 L 40.285156 48.59375 C 40.285156 54.144531 40.273438 57.828125 40.253906 57.828125 C 40.238281 57.828125 39.714844 57.3125 39.09375 56.679688 Z M 33.707031 40.246094 C 36.851562 38.632812 37.679688 38.199219 37.800781 38.101562 C 37.875 38.039062 37.910156 37.972656 37.929688 37.839844 C 37.964844 37.636719 37.976562 33.425781 37.941406 33.34375 C 37.90625 33.242188 37.820312 33.277344 37.558594 33.488281 C 35.1875 35.386719 33.207031 37.765625 31.738281 40.484375 C 31.285156 41.324219 31.242188 41.429688 31.359375 41.429688 C 31.378906 41.429688 32.433594 40.894531 33.707031 40.246094 Z M 33.707031 40.246094 "/><path style=" stroke:none;fill-rule:nonzero;fill:#ffffff;fill-opacity:1;" d="M 39.097656 56.667969 L 37.964844 55.515625 L 37.964844 48.078125 C 37.964844 41.566406 37.960938 40.640625 37.914062 40.621094 C 37.859375 40.601562 35.820312 41.621094 30.425781 44.371094 C 28.882812 45.15625 27.589844 45.8125 27.554688 45.832031 C 27.488281 45.867188 27.488281 45.859375 27.511719 45.691406 C 27.523438 45.59375 27.589844 45.28125 27.660156 44.996094 C 28.574219 41.261719 30.558594 37.542969 33.195312 34.605469 C 33.664062 34.085938 34.75 33.007812 35.265625 32.554688 C 36.085938 31.832031 37.15625 31.015625 38.089844 30.40625 C 38.757812 29.96875 40.183594 29.140625 40.261719 29.140625 C 40.277344 29.140625 40.292969 30.855469 40.296875 32.953125 C 40.304688 37.316406 40.261719 36.871094 40.667969 36.683594 C 41.613281 36.238281 42.582031 35.265625 43.007812 34.332031 C 43.34375 33.59375 43.449219 33.101562 43.449219 32.246094 C 43.449219 31.324219 43.328125 30.8125 42.917969 30.015625 C 42.570312 29.339844 42.460938 29.207031 39.609375 26.246094 C 37.667969 24.230469 37.121094 23.652344 36.804688 23.300781 C 36.285156 22.71875 35.972656 22.179688 35.816406 21.601562 C 35.703125 21.179688 35.703125 20.402344 35.816406 19.976562 C 35.921875 19.578125 36.210938 19.011719 36.464844 18.691406 C 36.941406 18.101562 37.691406 17.632812 38.386719 17.488281 C 38.503906 17.464844 38.597656 17.433594 38.589844 17.417969 C 38.582031 17.40625 38.703125 17.382812 38.863281 17.371094 C 39.183594 17.339844 39.6875 17.375 39.660156 17.425781 C 39.648438 17.441406 39.679688 17.457031 39.730469 17.457031 C 39.871094 17.457031 40.386719 17.628906 40.683594 17.777344 C 41.296875 18.082031 41.851562 18.566406 42.339844 19.226562 C 42.652344 19.648438 43.460938 20.941406 45.308594 23.976562 C 47.101562 26.921875 47.398438 27.425781 47.398438 27.519531 C 47.398438 27.679688 47.617188 27.902344 43.882812 23.996094 C 43.15625 23.242188 42.117188 22.144531 41.574219 21.566406 C 39.816406 19.695312 39.71875 19.617188 39.125 19.621094 C 38.847656 19.621094 38.78125 19.632812 38.621094 19.714844 C 38.394531 19.835938 38.136719 20.097656 38.027344 20.3125 C 37.960938 20.445312 37.949219 20.535156 37.949219 20.816406 C 37.949219 21.117188 37.960938 21.175781 38.046875 21.34375 C 38.160156 21.558594 38.035156 21.425781 41.234375 24.765625 C 42.570312 26.160156 43.738281 27.378906 43.824219 27.476562 C 44.78125 28.53125 45.378906 29.8125 45.59375 31.265625 C 45.664062 31.738281 45.660156 32.703125 45.589844 33.21875 C 45.3125 35.195312 44.222656 36.960938 42.589844 38.070312 C 42.195312 38.335938 41.695312 38.621094 40.964844 38.984375 C 40.703125 39.113281 40.4375 39.253906 40.386719 39.292969 L 40.285156 39.363281 L 40.285156 48.59375 C 40.285156 53.675781 40.273438 57.828125 40.261719 57.828125 C 40.246094 57.828125 39.722656 57.308594 39.097656 56.667969 Z M 33.160156 40.535156 C 35.363281 39.40625 37.320312 38.394531 37.59375 38.242188 C 37.707031 38.175781 37.839844 38.070312 37.882812 38.003906 L 37.964844 37.882812 L 37.964844 35.640625 C 37.964844 34.40625 37.953125 33.371094 37.941406 33.34375 C 37.898438 33.226562 37.773438 33.296875 37.257812 33.726562 C 35.136719 35.492188 33.398438 37.554688 32.054688 39.90625 C 31.703125 40.519531 31.285156 41.328125 31.285156 41.394531 C 31.285156 41.414062 31.3125 41.429688 31.34375 41.429688 C 31.378906 41.429688 32.195312 41.027344 33.160156 40.535156 Z M 27.429688 45.875 C 27.429688 45.835938 27.4375 45.824219 27.449219 45.851562 C 27.460938 45.878906 27.460938 45.910156 27.449219 45.921875 C 27.4375 45.933594 27.425781 45.914062 27.429688 45.875 Z M 47.433594 27.582031 C 47.4375 27.542969 47.445312 27.53125 47.457031 27.558594 C 47.46875 27.585938 47.464844 27.617188 47.453125 27.628906 C 47.441406 27.640625 47.433594 27.621094 47.433594 27.582031 Z M 47.433594 27.582031 "/><path style=" stroke:none;fill-rule:nonzero;fill:#ffffff;fill-opacity:1;" d="M 39.097656 56.65625 L 37.964844 55.523438 L 37.964844 40.609375 L 37.890625 40.609375 C 37.824219 40.609375 35.875 41.589844 30.058594 44.546875 C 28.667969 45.253906 27.519531 45.824219 27.507812 45.8125 C 27.453125 45.757812 27.835938 44.273438 28.140625 43.359375 C 28.988281 40.796875 30.273438 38.351562 31.910156 36.179688 C 33.675781 33.839844 35.988281 31.726562 38.519531 30.144531 C 39.160156 29.746094 40.167969 29.175781 40.238281 29.175781 C 40.277344 29.175781 40.289062 29.894531 40.296875 32.972656 L 40.304688 36.769531 L 40.382812 36.777344 C 40.425781 36.785156 40.59375 36.722656 40.757812 36.640625 C 42.148438 35.941406 43.15625 34.585938 43.410156 33.074219 C 43.484375 32.640625 43.484375 31.855469 43.414062 31.441406 C 43.265625 30.589844 42.875 29.753906 42.328125 29.105469 C 42.09375 28.828125 41.164062 27.847656 39.535156 26.160156 C 36.5 23.007812 36.378906 22.871094 36.050781 22.191406 C 35.804688 21.691406 35.738281 21.390625 35.738281 20.796875 C 35.738281 20.238281 35.796875 19.953125 36.007812 19.460938 C 36.414062 18.527344 37.308594 17.769531 38.316406 17.515625 C 38.496094 17.46875 38.632812 17.421875 38.625 17.414062 C 38.613281 17.402344 38.71875 17.382812 38.859375 17.371094 C 39.15625 17.339844 39.710938 17.382812 39.636719 17.425781 C 39.605469 17.445312 39.617188 17.457031 39.675781 17.457031 C 39.828125 17.457031 40.292969 17.601562 40.59375 17.742188 C 41.238281 18.039062 41.804688 18.519531 42.300781 19.1875 C 42.6875 19.703125 43.847656 21.582031 46.976562 26.746094 C 47.449219 27.523438 47.515625 27.730469 47.210938 27.453125 C 47.140625 27.390625 46.320312 26.539062 45.394531 25.566406 C 44.464844 24.59375 43.378906 23.460938 42.984375 23.046875 C 42.589844 22.636719 41.910156 21.921875 41.476562 21.460938 C 39.867188 19.75 39.722656 19.632812 39.195312 19.609375 C 38.808594 19.589844 38.570312 19.679688 38.300781 19.941406 C 37.960938 20.273438 37.832031 20.691406 37.949219 21.089844 C 38.058594 21.484375 37.8125 21.203125 41 24.53125 C 42.328125 25.917969 43.542969 27.1875 43.703125 27.355469 C 44.703125 28.421875 45.296875 29.617188 45.558594 31.085938 C 45.636719 31.519531 45.664062 32.492188 45.613281 32.960938 C 45.375 35.140625 44.238281 36.992188 42.394531 38.1875 C 42.226562 38.296875 41.691406 38.597656 41.199219 38.851562 L 40.304688 39.316406 L 40.296875 48.554688 C 40.292969 53.636719 40.273438 57.792969 40.257812 57.792969 C 40.246094 57.792969 39.722656 57.285156 39.097656 56.65625 Z M 33.601562 40.316406 C 36.492188 38.835938 37.597656 38.257812 37.738281 38.167969 C 37.976562 38.011719 37.964844 38.136719 37.964844 35.617188 C 37.964844 33.347656 37.960938 33.25 37.851562 33.25 C 37.835938 33.25 37.636719 33.402344 37.402344 33.59375 C 35.597656 35.070312 34.003906 36.835938 32.773438 38.714844 C 32.09375 39.753906 31.25 41.289062 31.292969 41.40625 C 31.304688 41.4375 31.328125 41.464844 31.339844 41.464844 C 31.351562 41.464844 32.371094 40.949219 33.601562 40.316406 Z M 27.429688 45.875 C 27.429688 45.835938 27.4375 45.824219 27.449219 45.851562 C 27.460938 45.878906 27.460938 45.910156 27.449219 45.921875 C 27.4375 45.933594 27.425781 45.914062 27.429688 45.875 Z M 27.429688 45.875 "/><path style=" stroke:none;fill-rule:nonzero;fill:#ffffff;fill-opacity:1;" d="M 39.117188 56.65625 L 38 55.515625 L 38 48.136719 C 38 43.296875 37.988281 40.726562 37.964844 40.660156 C 37.9375 40.589844 37.914062 40.574219 37.855469 40.589844 C 37.777344 40.617188 34.269531 42.390625 30.179688 44.472656 C 28.71875 45.21875 27.519531 45.824219 27.511719 45.816406 C 27.507812 45.8125 27.539062 45.628906 27.582031 45.414062 C 28.167969 42.660156 29.582031 39.503906 31.390625 36.90625 C 33.335938 34.121094 35.984375 31.667969 38.964844 29.882812 C 39.402344 29.621094 40.203125 29.175781 40.234375 29.175781 C 40.246094 29.175781 40.25 30.863281 40.25 32.925781 C 40.25 34.984375 40.261719 36.699219 40.273438 36.730469 C 40.363281 36.964844 41.359375 36.394531 42.042969 35.714844 C 43.824219 33.953125 43.984375 31.152344 42.417969 29.199219 C 42.171875 28.890625 41.621094 28.308594 39.464844 26.066406 C 37.277344 23.792969 36.972656 23.46875 36.664062 23.101562 C 36.011719 22.320312 35.75 21.664062 35.75 20.808594 C 35.75 20.191406 35.859375 19.746094 36.144531 19.210938 C 36.464844 18.613281 36.976562 18.121094 37.625 17.796875 C 37.988281 17.613281 38.453125 17.460938 38.675781 17.453125 L 38.769531 17.449219 L 38.679688 17.421875 C 38.535156 17.382812 39.09375 17.339844 39.398438 17.371094 C 39.59375 17.390625 39.640625 17.40625 39.570312 17.421875 C 39.488281 17.449219 39.488281 17.449219 39.59375 17.453125 C 39.796875 17.460938 40.269531 17.605469 40.597656 17.761719 C 41.257812 18.074219 41.792969 18.523438 42.296875 19.195312 C 42.601562 19.605469 43.554688 21.132812 45.347656 24.085938 C 47.390625 27.445312 47.464844 27.566406 47.367188 27.566406 C 47.347656 27.566406 46.265625 26.453125 44.960938 25.09375 C 41.851562 21.839844 42.085938 22.089844 41.230469 21.171875 C 40.226562 20.101562 39.941406 19.832031 39.667969 19.707031 C 39.136719 19.457031 38.628906 19.566406 38.222656 20.007812 C 38.019531 20.226562 37.921875 20.453125 37.902344 20.742188 C 37.882812 21.003906 37.964844 21.269531 38.136719 21.523438 C 38.1875 21.601562 39.472656 22.957031 40.988281 24.535156 C 42.5 26.117188 43.832031 27.511719 43.945312 27.640625 C 44.394531 28.152344 44.875 28.945312 45.144531 29.625 C 46.203125 32.304688 45.515625 35.410156 43.433594 37.367188 C 42.835938 37.929688 42.324219 38.261719 41.066406 38.910156 C 40.65625 39.121094 40.3125 39.3125 40.296875 39.335938 C 40.28125 39.355469 40.261719 43.519531 40.25 48.589844 L 40.234375 57.800781 Z M 33.34375 40.460938 C 36.148438 39.023438 37.570312 38.289062 37.722656 38.191406 C 38 38.019531 37.980469 38.175781 37.996094 35.710938 C 38 34.5 37.992188 33.453125 37.972656 33.390625 C 37.957031 33.320312 37.917969 33.261719 37.882812 33.253906 C 37.753906 33.230469 36.570312 34.246094 35.640625 35.175781 C 33.953125 36.871094 32.523438 38.851562 31.410156 41.046875 C 31.246094 41.371094 31.230469 41.464844 31.339844 41.464844 C 31.363281 41.464844 32.269531 41.011719 33.34375 40.460938 Z M 27.429688 45.875 C 27.429688 45.835938 27.4375 45.824219 27.449219 45.851562 C 27.460938 45.878906 27.460938 45.910156 27.449219 45.921875 C 27.4375 45.933594 27.425781 45.914062 27.429688 45.875 Z M 27.429688 45.875 "/><path style=" stroke:none;fill-rule:nonzero;fill:#ffffff;fill-opacity:1;" d="M 39.117188 56.632812 L 38 55.496094 L 37.984375 40.589844 L 37.910156 40.578125 C 37.839844 40.570312 35.828125 41.578125 30.179688 44.453125 C 28.738281 45.191406 27.546875 45.78125 27.539062 45.769531 C 27.53125 45.761719 27.554688 45.589844 27.601562 45.386719 C 28.359375 41.921875 30.296875 38.070312 32.703125 35.226562 C 34.742188 32.820312 37.171875 30.851562 39.976562 29.324219 L 40.25 29.175781 L 40.25 36.785156 L 40.339844 36.804688 C 40.574219 36.863281 41.515625 36.273438 42.054688 35.734375 C 42.625 35.164062 42.996094 34.5625 43.253906 33.789062 C 43.722656 32.378906 43.511719 30.78125 42.695312 29.546875 C 42.40625 29.109375 42.074219 28.75 39.628906 26.210938 C 36.957031 23.433594 36.671875 23.128906 36.355469 22.667969 C 36.113281 22.3125 35.957031 21.988281 35.84375 21.601562 C 35.734375 21.207031 35.734375 20.382812 35.851562 19.976562 C 36.074219 19.183594 36.601562 18.453125 37.261719 18.015625 C 37.691406 17.734375 38.390625 17.464844 38.75 17.453125 L 38.875 17.445312 L 38.734375 17.421875 C 38.484375 17.382812 39.160156 17.339844 39.429688 17.378906 C 39.632812 17.410156 39.644531 17.414062 39.519531 17.421875 C 39.390625 17.429688 39.394531 17.433594 39.589844 17.460938 C 40.597656 17.605469 41.582031 18.25 42.320312 19.257812 C 42.660156 19.71875 45.652344 24.570312 47.160156 27.105469 C 47.386719 27.488281 47.417969 27.597656 47.25 27.441406 C 47.039062 27.242188 42.476562 22.472656 41.386719 21.3125 C 40.140625 19.984375 40 19.847656 39.679688 19.695312 C 39.472656 19.59375 39.414062 19.582031 39.125 19.585938 C 38.726562 19.585938 38.539062 19.664062 38.246094 19.960938 C 37.972656 20.242188 37.878906 20.476562 37.902344 20.867188 C 37.917969 21.1875 38.007812 21.402344 38.226562 21.664062 C 38.296875 21.746094 39.453125 22.960938 40.796875 24.359375 C 42.136719 25.761719 43.402344 27.085938 43.609375 27.300781 C 44.59375 28.339844 45.203125 29.488281 45.488281 30.835938 C 45.613281 31.425781 45.648438 32.597656 45.558594 33.214844 C 45.375 34.484375 44.839844 35.71875 44.039062 36.695312 C 43.730469 37.070312 43.097656 37.667969 42.714844 37.9375 C 42.261719 38.257812 42.0625 38.375 41.09375 38.875 L 40.269531 39.304688 L 40.234375 57.769531 Z M 33.390625 40.457031 C 35.8125 39.214844 37.425781 38.382812 37.667969 38.246094 C 38.007812 38.054688 37.980469 38.257812 37.992188 35.679688 C 38 34.429688 37.996094 33.371094 37.984375 33.328125 C 37.949219 33.183594 37.804688 33.226562 37.507812 33.472656 C 34.972656 35.519531 33.066406 37.867188 31.484375 40.863281 C 31.210938 41.390625 31.179688 41.539062 31.367188 41.480469 C 31.40625 41.46875 32.316406 41.007812 33.390625 40.457031 Z M 27.429688 45.875 C 27.429688 45.835938 27.4375 45.824219 27.449219 45.851562 C 27.460938 45.878906 27.460938 45.910156 27.449219 45.921875 C 27.433594 45.933594 27.425781 45.914062 27.429688 45.875 Z M 27.429688 45.875 "/></g></svg>