<svg xmlns="http://www.w3.org/2000/svg" xmlns:xlink="http://www.w3.org/1999/xlink" width="100" zoomAndPan="magnify" viewBox="0 0 75 74.999997" height="100" preserveAspectRatio="xMidYMid meet" version="1.2"><defs><clipPath id="1dff226ca0"><path d="M 7.5 21 L 67.5 21 L 67.5 54 L 7.5 54 Z M 7.5 21 "/></clipPath></defs><g id="d5ab9cecd5"><g clip-rule="nonzero" clip-path="url(#1dff226ca0)"><path style=" stroke:none;fill-rule:nonzero;fill:#e94a70;fill-opacity:1;" d="M 63.300781 21.898438 C 66.648438 23.792969 66.648438 23.792969 67.5 25.5 C 67.871094 28.5 67.980469 30.761719 66.300781 33.335938 C 63.894531 34.890625 62.574219 35.101562 59.699219 35.101562 C 57.863281 34.324219 56.96875 33.816406 56.042969 32.042969 C 54.691406 30.691406 54.335938 30.722656 52.492188 30.664062 C 51.558594 30.679688 50.621094 30.710938 49.6875 30.75 C 48.96875 30.765625 48.96875 30.765625 48.238281 30.78125 C 47.058594 30.8125 45.878906 30.855469 44.699219 30.898438 C 44.496094 31.75 44.296875 32.597656 44.101562 33.449219 C 43.933594 34.160156 43.933594 34.160156 43.761719 34.882812 C 43.324219 37.242188 43.558594 39.253906 44.101562 41.550781 C 44.210938 42.03125 44.324219 42.507812 44.4375 43.003906 C 44.523438 43.363281 44.609375 43.726562 44.699219 44.101562 C 46.085938 44.296875 47.472656 44.496094 48.898438 44.699219 C 49.023438 44.242188 49.148438 43.785156 49.273438 43.3125 C 50.402344 41.109375 51.367188 40.679688 53.699219 39.898438 C 56.421875 39.71875 58.0625 40.175781 60.261719 41.8125 C 61.652344 43.707031 62.050781 44.761719 62.101562 47.101562 C 61.472656 49.492188 60.496094 51.03125 58.5 52.5 C 55.734375 53.167969 54.371094 53.324219 51.675781 52.425781 C 49.917969 51.167969 49.457031 50.359375 48.898438 48.300781 C 48.167969 48.347656 47.441406 48.398438 46.6875 48.449219 C 44.851562 48.433594 44.097656 48.296875 42.414062 47.4375 C 41.074219 45.867188 40.796875 45.0625 40.273438 43.125 C 39.765625 41.136719 39.765625 41.136719 38.257812 39.882812 C 36.964844 39.5 36.964844 39.5 35.101562 39.300781 C 34.953125 39.660156 34.804688 40.019531 34.648438 40.386719 C 33.722656 42.011719 33.175781 42.640625 31.5 43.5 C 29.636719 43.820312 27.960938 43.863281 26.101562 43.5 C 24.261719 42.074219 24.261719 42.074219 23.101562 40.5 C 23.101562 40.105469 23.101562 39.707031 23.101562 39.300781 C 20.933594 39.480469 20.253906 39.726562 18.789062 41.398438 C 18.429688 41.894531 18.070312 42.390625 17.699219 42.898438 C 15.59375 43.953125 13.398438 43.820312 11.101562 43.5 C 8.441406 42.148438 8.441406 42.148438 7.5 40.5 C 6.917969 37.851562 6.726562 35.207031 8.148438 32.804688 C 9.757812 31.261719 11.378906 30.710938 13.539062 30.601562 C 15.910156 30.902344 17.09375 31.160156 18.898438 32.699219 C 19.6875 34.3125 19.6875 34.3125 20.101562 35.699219 C 22.214844 35.542969 22.628906 34.953125 24.074219 33.300781 C 24.546875 32.707031 25.015625 32.113281 25.5 31.5 C 27.4375 30.53125 29.402344 30.546875 31.5 30.898438 C 33.046875 31.742188 33.871094 32.578125 35.101562 33.898438 C 35.101562 34.492188 35.101562 35.089844 35.101562 35.699219 C 37.328125 35.417969 37.328125 35.417969 39.300781 34.5 C 39.9375 33.167969 40.265625 31.921875 40.5625 30.472656 C 41.351562 28.460938 42.230469 27.789062 44.101562 26.699219 C 46.371094 26.351562 48.652344 26.453125 50.945312 26.511719 C 53.601562 26.542969 53.601562 26.542969 55.84375 25.296875 C 56.5625 24.390625 57.234375 23.445312 57.898438 22.5 C 59.910156 21.828125 61.191406 21.691406 63.300781 21.898438 Z M 59.101562 26.699219 C 59 28.5 59 28.5 59.101562 30.300781 C 59.730469 31.0625 59.730469 31.0625 61.164062 31.011719 C 62.800781 31.0625 62.800781 31.0625 63.898438 29.699219 C 63.726562 27.714844 63.726562 27.714844 62.699219 26.101562 C 60.726562 25.855469 60.726562 25.855469 59.101562 26.699219 Z M 28.5 34.5 C 27.90625 34.894531 27.3125 35.292969 26.699219 35.699219 C 26.449219 37.199219 26.449219 37.199219 26.699219 38.699219 C 27.097656 39.097656 27.492188 39.492188 27.898438 39.898438 C 29.882812 39.726562 29.882812 39.726562 31.5 38.699219 C 31.523438 37.699219 31.527344 36.699219 31.5 35.699219 C 30.101562 34.980469 30.101562 34.980469 28.5 34.5 Z M 11.699219 35.101562 C 11.503906 36.289062 11.304688 37.476562 11.101562 38.699219 C 12.710938 40.035156 12.710938 40.035156 14.136719 39.824219 C 15.644531 39.144531 15.917969 38.410156 16.5 36.898438 C 15.710938 36.085938 14.914062 35.289062 14.101562 34.5 C 13.277344 34.46875 13.277344 34.46875 11.699219 35.101562 Z M 52.5 45.300781 C 52.675781 47.285156 52.675781 47.285156 53.699219 48.898438 C 54.699219 48.925781 55.699219 48.925781 56.699219 48.898438 C 57.417969 47.503906 57.417969 47.503906 57.898438 45.898438 C 57.503906 45.304688 57.109375 44.710938 56.699219 44.101562 C 54.625 43.839844 54.011719 43.789062 52.5 45.300781 Z M 52.5 45.300781 "/></g></g></svg>