<svg xmlns="http://www.w3.org/2000/svg" xmlns:xlink="http://www.w3.org/1999/xlink" width="100" zoomAndPan="magnify" viewBox="0 0 75 74.999997" height="100" preserveAspectRatio="xMidYMid meet" version="1.2"><g id="6226da78fa"><path style=" stroke:none;fill-rule:nonzero;fill:#000000;fill-opacity:1;" d="M 14.761719 12.539062 C 11.820312 14.160156 11.761719 14.820312 11.699219 36.121094 L 11.699219 56.101562 L 13.441406 58.019531 L 15.179688 60 L 32.039062 60.179688 L 48.898438 60.300781 L 48.898438 55.5 L 33.359375 55.5 C 19.679688 55.5 17.761719 55.378906 17.039062 54.480469 C 16.378906 53.699219 16.199219 49.921875 16.199219 35.761719 C 16.199219 19.859375 16.320312 17.878906 17.21875 16.980469 C 18.121094 16.078125 20.101562 15.960938 35.519531 15.898438 C 50.339844 15.898438 52.980469 16.019531 54.179688 16.800781 C 55.5 17.761719 55.5 17.878906 55.5 33.359375 L 55.5 48.898438 L 60.359375 48.898438 L 60 15.179688 L 58.019531 13.441406 L 56.101562 11.699219 L 36.121094 11.699219 C 20.761719 11.761719 15.898438 11.941406 14.761719 12.539062 Z M 14.761719 12.539062 "/><path style=" stroke:none;fill-rule:nonzero;fill:#000000;fill-opacity:1;" d="M 24.839844 24.839844 L 23.101562 26.578125 L 23.101562 49.078125 L 25.980469 48.660156 C 27.539062 48.480469 29.101562 47.820312 29.578125 47.28125 C 30 46.679688 30.300781 44.339844 30.300781 41.28125 C 30.300781 36.601562 30.839844 35.21875 31.921875 37.140625 C 32.820312 38.699219 41.460938 47.519531 42.78125 48.238281 C 44.640625 49.199219 47.339844 47.699219 48.238281 45.238281 C 48.601562 44.101562 48.898438 39.058594 48.898438 33.238281 L 48.898438 23.101562 L 46.140625 23.101562 C 42.121094 23.101562 41.699219 23.820312 41.699219 30.71875 L 41.699219 36.601562 L 35.21875 29.820312 C 31.621094 26.039062 28.320312 23.101562 27.71875 23.101562 C 27.121094 23.101562 25.800781 23.878906 24.839844 24.839844 Z M 24.839844 24.839844 "/><path style=" stroke:none;fill-rule:nonzero;fill:#000000;fill-opacity:1;" d="M 54.058594 54.058594 C 51.78125 56.398438 51.898438 59.640625 54.359375 61.738281 C 56.640625 63.660156 59.101562 63.71875 61.199219 61.921875 C 64.980469 58.679688 62.820312 52.5 57.898438 52.5 C 56.28125 52.5 55.261719 52.921875 54.058594 54.058594 Z M 54.058594 54.058594 "/></g></svg>