<svg xmlns="http://www.w3.org/2000/svg" xmlns:xlink="http://www.w3.org/1999/xlink" width="100" zoomAndPan="magnify" viewBox="0 0 75 74.999997" height="100" preserveAspectRatio="xMidYMid meet" version="1.2"><defs><clipPath id="acfcebb4c5"><path d="M 7.5 7.5 L 66 7.5 L 66 67.5 L 7.5 67.5 Z M 7.5 7.5 "/></clipPath></defs><g id="d4f7d09a5d"><g clip-rule="nonzero" clip-path="url(#acfcebb4c5)"><path style=" stroke:none;fill-rule:nonzero;fill:#fbfcfd;fill-opacity:1;" d="M 7.5 7.503906 C 26.804688 7.503906 46.109375 7.503906 66 7.503906 C 66 27.300781 66 47.097656 66 67.496094 C 46.695312 67.496094 27.390625 67.496094 7.5 67.496094 C 7.5 47.699219 7.5 27.902344 7.5 7.503906 Z M 7.5 7.503906 "/></g><path style=" stroke:none;fill-rule:nonzero;fill:#366992;fill-opacity:1;" d="M 45.726562 11.503906 C 49.859375 13.59375 52.613281 16.546875 54.542969 20.703125 C 54.542969 21.296875 54.542969 21.890625 54.542969 22.5 C 53.78125 22.5625 53.023438 22.625 52.242188 22.6875 C 50.757812 22.882812 49.820312 23.042969 48.511719 23.777344 C 47.527344 25.605469 47.53125 27.117188 47.90625 29.101562 C 49.289062 33.164062 51.140625 36.917969 53.445312 40.539062 C 54.085938 42.046875 53.871094 42.558594 53.335938 44.097656 C 52 48.253906 51.5625 52.417969 51.117188 56.746094 C 50.722656 59.992188 50.398438 62.152344 47.90625 64.496094 C 46.054688 65.882812 44.078125 65.980469 41.816406 65.933594 C 40.671875 65.699219 40.671875 65.699219 39.199219 64.308594 C 37.789062 61.894531 37.582031 60.144531 37.570312 57.394531 C 37.550781 56.363281 37.550781 56.363281 37.535156 55.3125 C 37.515625 53.863281 37.503906 52.414062 37.5 50.96875 C 37.488281 50.28125 37.472656 49.589844 37.457031 48.882812 C 37.449219 48.253906 37.445312 47.625 37.441406 46.976562 C 36.925781 44.757812 35.902344 44.128906 34.035156 42.898438 C 34.335938 40.660156 34.5625 39.414062 35.84375 37.5 C 36.019531 36.332031 36.019531 36.332031 35.984375 35.066406 C 35.984375 34.367188 35.984375 34.367188 35.980469 33.648438 C 35.972656 33.164062 35.964844 32.675781 35.957031 32.175781 C 35.957031 31.695312 35.957031 31.210938 35.957031 30.714844 C 35.9375 28.304688 35.839844 26.054688 35.242188 23.699219 C 32.054688 22.6875 28.808594 22.925781 25.59375 23.699219 C 26.675781 18.113281 27.90625 13.820312 32.828125 10.503906 C 37.238281 9.039062 41.492188 9.8125 45.726562 11.503906 Z M 45.726562 11.503906 "/><path style=" stroke:none;fill-rule:nonzero;fill:#366993;fill-opacity:1;" d="M 28.609375 11.101562 C 28.347656 11.613281 28.347656 11.613281 28.082031 12.136719 C 27.417969 13.46875 26.777344 14.808594 26.15625 16.164062 C 25.953125 16.609375 25.746094 17.054688 25.535156 17.511719 C 24.027344 21.355469 24.253906 25.363281 24.242188 29.429688 C 24.234375 30.636719 24.21875 31.84375 24.199219 33.050781 C 24.195312 33.816406 24.191406 34.578125 24.1875 35.363281 C 24.183594 36.0625 24.175781 36.757812 24.171875 37.476562 C 24.40625 39.476562 24.902344 40.207031 26.195312 41.699219 C 26.125 44.015625 24.667969 45.3125 23.144531 46.949219 C 22.699219 47.429688 22.257812 47.910156 21.800781 48.402344 C 21.460938 48.765625 21.121094 49.125 20.769531 49.5 C 18.636719 49.164062 17.820312 48.546875 16.546875 46.835938 C 16.261719 46.464844 15.972656 46.097656 15.679688 45.714844 C 13.113281 41.316406 11.769531 36.507812 10.667969 31.574219 C 10.535156 31 10.40625 30.421875 10.273438 29.828125 C 9.242188 25.007812 8.433594 20.46875 9.949219 15.675781 C 14.929688 8.964844 21 9.054688 28.609375 11.101562 Z M 28.609375 11.101562 "/><path style=" stroke:none;fill-rule:nonzero;fill:#386b94;fill-opacity:1;" d="M 46.699219 9.300781 C 52.535156 8.945312 57.417969 9.519531 62.15625 13.164062 C 64.167969 15.453125 64.046875 17.96875 63.898438 20.886719 C 62.875 28.183594 59.851562 34.675781 56.351562 41.101562 C 56.152344 40.703125 55.953125 40.308594 55.746094 39.898438 C 55.945312 39.304688 56.144531 38.710938 56.351562 38.101562 C 56.558594 35.390625 56.574219 32.679688 56.613281 29.964844 C 56.65625 28.847656 56.65625 28.847656 56.699219 27.710938 C 56.769531 21.773438 55.382812 18.179688 51.367188 13.816406 C 50.96875 13.503906 50.574219 13.1875 50.167969 12.863281 C 49.769531 12.535156 49.367188 12.207031 48.953125 11.867188 C 47.917969 11.066406 47.917969 11.066406 46.699219 10.503906 C 46.699219 10.105469 46.699219 9.710938 46.699219 9.300781 Z M 46.699219 9.300781 "/><path style=" stroke:none;fill-rule:nonzero;fill:#386b94;fill-opacity:1;" d="M 30.417969 24.902344 C 30.617188 25.496094 30.816406 26.089844 31.019531 26.699219 C 32.214844 26.503906 33.410156 26.304688 34.640625 26.101562 C 34.898438 32.171875 34.953125 37.292969 32.226562 42.898438 C 30.105469 42.707031 28.890625 42.527344 27.214844 41.175781 C 25.042969 38.453125 25.460938 35.371094 25.441406 32.0625 C 25.429688 31.507812 25.417969 30.953125 25.40625 30.382812 C 25.402344 29.855469 25.398438 29.324219 25.394531 28.78125 C 25.390625 28.292969 25.382812 27.808594 25.378906 27.308594 C 25.449219 26.910156 25.519531 26.511719 25.59375 26.101562 C 27.539062 24.808594 28.175781 24.78125 30.417969 24.902344 Z M 30.417969 24.902344 "/><path style=" stroke:none;fill-rule:nonzero;fill:#edf1f5;fill-opacity:1;" d="M 26.800781 13.5 C 27.59375 13.699219 28.390625 13.898438 29.210938 14.101562 C 28.820312 14.972656 28.820312 14.972656 28.417969 15.863281 C 27.3125 18.421875 26.445312 21.050781 25.59375 23.699219 C 26.003906 23.503906 26.414062 23.304688 26.835938 23.101562 C 29.371094 22.242188 31.644531 22.152344 34.222656 22.914062 C 35.671875 24.035156 35.90625 24.945312 36.449219 26.699219 C 36.632812 28.492188 36.644531 30.265625 36.636719 32.0625 C 36.648438 32.535156 36.65625 33.003906 36.667969 33.492188 C 36.667969 36.441406 36.382812 38.597656 34.640625 41.101562 C 33.320312 41.625 33.320312 41.625 32.226562 41.699219 C 32.65625 40.679688 32.65625 40.679688 33.09375 39.636719 C 34.582031 35.292969 34.488281 30.648438 34.640625 26.101562 C 34.042969 26.496094 33.445312 26.894531 32.828125 27.300781 C 31.511719 27.074219 31.511719 27.074219 30.417969 26.699219 C 30.417969 26.105469 30.417969 25.511719 30.417969 24.902344 C 29.023438 25.296875 27.632812 25.691406 26.195312 26.101562 C 26.1875 26.457031 26.179688 26.816406 26.167969 27.183594 C 26.125 28.796875 26.066406 30.410156 26.007812 32.027344 C 25.992188 32.585938 25.980469 33.148438 25.964844 33.730469 C 25.945312 34.265625 25.921875 34.804688 25.902344 35.359375 C 25.886719 35.855469 25.871094 36.351562 25.855469 36.863281 C 25.59375 38.101562 25.59375 38.101562 23.785156 39.300781 C 23.738281 36.933594 23.707031 34.5625 23.683594 32.195312 C 23.671875 31 23.648438 29.808594 23.625 28.613281 C 23.582031 23.019531 24.199219 18.480469 26.800781 13.5 Z M 26.800781 13.5 "/><path style=" stroke:none;fill-rule:nonzero;fill:#3e6f97;fill-opacity:1;" d="M 49.113281 25.5 C 49.953125 25.667969 49.953125 25.667969 50.808594 25.839844 C 52.738281 26.246094 52.738281 26.246094 54.542969 25.5 C 55.53125 34.757812 55.53125 34.757812 55.144531 38.101562 C 54.746094 38.496094 54.347656 38.890625 53.9375 39.300781 C 49.203125 30.652344 49.203125 30.652344 49.113281 25.5 Z M 49.113281 25.5 "/><path style=" stroke:none;fill-rule:nonzero;fill:#e9eff3;fill-opacity:1;" d="M 56.351562 21.300781 C 56.550781 21.300781 56.75 21.300781 56.953125 21.300781 C 56.953125 26.84375 56.953125 32.386719 56.953125 38.101562 C 56.355469 38.296875 55.757812 38.496094 55.144531 38.699219 C 54.746094 34.542969 54.347656 30.382812 53.9375 26.101562 C 52.941406 26.300781 51.949219 26.496094 50.921875 26.699219 C 49.527344 26.136719 49.527344 26.136719 48.511719 25.5 C 48.3125 26.6875 48.113281 27.875 47.90625 29.101562 C 47.707031 29.101562 47.507812 29.101562 47.304688 29.101562 C 47.011719 25.316406 47.011719 25.316406 48.359375 23.402344 C 49.714844 22.5 49.714844 22.5 50.847656 22.578125 C 51.269531 22.75 51.691406 22.921875 52.128906 23.101562 C 53.097656 23.417969 53.097656 23.417969 54.089844 23.738281 C 54.636719 23.925781 55.183594 24.109375 55.746094 24.300781 C 55.945312 23.3125 56.144531 22.320312 56.351562 21.300781 Z M 56.351562 21.300781 "/><path style=" stroke:none;fill-rule:nonzero;fill:#e0e8ee;fill-opacity:1;" d="M 28.609375 22.5 C 33.453125 22.316406 33.453125 22.316406 35.242188 23.699219 C 36.710938 26.425781 36.648438 29.050781 36.636719 32.0625 C 36.648438 32.535156 36.65625 33.003906 36.667969 33.492188 C 36.667969 36.441406 36.382812 38.597656 34.640625 41.101562 C 33.320312 41.625 33.320312 41.625 32.226562 41.699219 C 32.511719 41.019531 32.800781 40.339844 33.09375 39.636719 C 34.582031 35.292969 34.488281 30.648438 34.640625 26.101562 C 34.042969 26.496094 33.445312 26.894531 32.828125 27.300781 C 31.511719 27.074219 31.511719 27.074219 30.417969 26.699219 C 30.417969 26.105469 30.417969 25.511719 30.417969 24.902344 C 29.820312 24.703125 29.222656 24.503906 28.609375 24.300781 C 29.800781 24.300781 30.996094 24.300781 32.226562 24.300781 C 32.226562 23.90625 32.226562 23.507812 32.226562 23.101562 C 31.03125 23.101562 29.839844 23.101562 28.609375 23.101562 C 28.609375 22.902344 28.609375 22.707031 28.609375 22.5 Z M 28.609375 22.5 "/><path style=" stroke:none;fill-rule:nonzero;fill:#e5ebf0;fill-opacity:1;" d="M 46.097656 9.300781 C 46.296875 9.699219 46.496094 10.09375 46.699219 10.503906 C 47.152344 10.664062 47.605469 10.828125 48.070312 10.996094 C 50.101562 11.867188 51.09375 12.976562 52.542969 14.625 C 53.007812 15.144531 53.46875 15.664062 53.945312 16.195312 C 55.789062 18.511719 56.515625 19.984375 56.425781 22.949219 C 56.414062 23.429688 56.402344 23.910156 56.394531 24.402344 C 56.378906 24.765625 56.363281 25.128906 56.351562 25.5 C 55.953125 25.105469 55.554688 24.710938 55.144531 24.300781 C 53.945312 24.0625 52.738281 23.859375 51.527344 23.699219 C 51.726562 23.304688 51.921875 22.910156 52.128906 22.5 C 52.925781 22.5 53.722656 22.5 54.542969 22.5 C 52.757812 18.367188 50.992188 15.535156 47.304688 12.902344 C 46.820312 12.53125 46.332031 12.160156 45.835938 11.777344 C 45.523438 11.554688 45.210938 11.332031 44.890625 11.101562 C 45.289062 11.101562 45.6875 11.101562 46.097656 11.101562 C 46.097656 10.507812 46.097656 9.914062 46.097656 9.300781 Z M 46.097656 9.300781 "/><path style=" stroke:none;fill-rule:nonzero;fill:#ecf0f4;fill-opacity:1;" d="M 48.511719 24.902344 C 48.710938 24.902344 48.910156 24.902344 49.113281 24.902344 C 49.160156 25.25 49.203125 25.601562 49.25 25.960938 C 49.890625 29.929688 51.277344 33.085938 53.1875 36.617188 C 53.9375 38.101562 53.9375 38.101562 53.9375 39.300781 C 53.339844 39.496094 52.742188 39.695312 52.128906 39.898438 C 47.222656 30.449219 47.222656 30.449219 47.90625 25.5 C 48.105469 25.304688 48.304688 25.105469 48.511719 24.902344 Z M 48.511719 24.902344 "/><path style=" stroke:none;fill-rule:nonzero;fill:#d3dee7;fill-opacity:1;" d="M 50.886719 22.613281 C 51.296875 22.773438 51.707031 22.933594 52.128906 23.101562 C 53.132812 23.304688 54.136719 23.507812 55.144531 23.699219 C 55.144531 24.691406 55.144531 25.679688 55.144531 26.699219 C 54.746094 26.503906 54.347656 26.304688 53.9375 26.101562 C 53.464844 26.210938 52.992188 26.324219 52.503906 26.4375 C 50.6875 26.738281 50.039062 26.457031 48.511719 25.5 C 48.3125 26.6875 48.113281 27.875 47.90625 29.101562 C 47.707031 29.101562 47.507812 29.101562 47.304688 29.101562 C 47.011719 25.316406 47.011719 25.316406 48.359375 23.402344 C 49.714844 22.5 49.714844 22.5 50.886719 22.613281 Z M 50.886719 22.613281 "/><path style=" stroke:none;fill-rule:nonzero;fill:#4b7a9e;fill-opacity:1;" d="M 33.433594 45.300781 C 34.789062 45.449219 34.789062 45.449219 35.84375 45.898438 C 35.667969 47.609375 35.355469 48.199219 34.035156 49.347656 C 31.585938 50.363281 29.417969 50.253906 26.800781 50.097656 C 26.800781 49.703125 26.800781 49.308594 26.800781 48.898438 C 27.445312 48.75 28.09375 48.601562 28.757812 48.449219 C 31.035156 47.878906 31.035156 47.878906 32.339844 46.386719 C 32.699219 46.027344 33.0625 45.667969 33.433594 45.300781 Z M 33.433594 45.300781 "/><path style=" stroke:none;fill-rule:nonzero;fill:#4e7ca0;fill-opacity:1;" d="M 54.542969 44.699219 C 58.71875 44.996094 58.71875 44.996094 62.984375 45.300781 C 62.382812 46.5 62.382812 46.5 60.835938 47.175781 C 58.410156 47.789062 56.433594 47.785156 53.9375 47.699219 C 54.136719 46.710938 54.335938 45.71875 54.542969 44.699219 Z M 54.542969 44.699219 "/><path style=" stroke:none;fill-rule:nonzero;fill:#dfe7ed;fill-opacity:1;" d="M 56.351562 21.300781 C 56.550781 21.300781 56.75 21.300781 56.953125 21.300781 C 57.027344 24.769531 56.851562 28.070312 56.351562 31.5 C 55.753906 31.699219 55.15625 31.894531 54.542969 32.101562 C 54.347656 28.070312 54.855469 25.046875 56.351562 21.300781 Z M 56.351562 21.300781 "/><path style=" stroke:none;fill-rule:nonzero;fill:#dce5ec;fill-opacity:1;" d="M 26.800781 13.5 C 27.59375 13.699219 28.390625 13.898438 29.210938 14.101562 C 28.304688 16.273438 27.507812 18.140625 26.195312 20.101562 C 25.597656 20.101562 25 20.101562 24.386719 20.101562 C 24.675781 19.226562 24.964844 18.351562 25.253906 17.476562 C 25.414062 16.988281 25.574219 16.503906 25.742188 16 C 26.195312 14.703125 26.195312 14.703125 26.800781 13.5 Z M 26.800781 13.5 "/><path style=" stroke:none;fill-rule:nonzero;fill:#8caac1;fill-opacity:1;" d="M 50.320312 24.300781 C 51.910156 24.300781 53.503906 24.300781 55.144531 24.300781 C 54.945312 25.09375 54.746094 25.886719 54.542969 26.699219 C 52.960938 26.699219 51.820312 26.511719 50.320312 26.101562 C 50.320312 25.507812 50.320312 24.914062 50.320312 24.300781 Z M 50.320312 24.300781 "/><path style=" stroke:none;fill-rule:nonzero;fill:#3d6f97;fill-opacity:1;" d="M 35.84375 45.898438 C 35.65625 47.023438 35.65625 47.023438 35.242188 48.300781 C 33.433594 49.5 33.433594 49.5 32.113281 49.273438 C 31.753906 49.148438 31.390625 49.027344 31.019531 48.898438 C 33.808594 45.898438 33.808594 45.898438 35.84375 45.898438 Z M 35.84375 45.898438 "/><path style=" stroke:none;fill-rule:nonzero;fill:#e5ecf1;fill-opacity:1;" d="M 35.242188 35.699219 C 35.832031 37.28125 35.855469 38.054688 35.429688 39.710938 C 34.640625 41.101562 34.640625 41.101562 33.382812 41.488281 C 33 41.558594 32.621094 41.628906 32.226562 41.699219 C 32.496094 40.808594 32.773438 39.921875 33.054688 39.039062 C 33.210938 38.542969 33.363281 38.050781 33.523438 37.539062 C 34.035156 36.300781 34.035156 36.300781 35.242188 35.699219 Z M 35.242188 35.699219 "/><path style=" stroke:none;fill-rule:nonzero;fill:#aabfd1;fill-opacity:1;" d="M 28.609375 24.300781 C 30.644531 24.1875 30.644531 24.1875 32.828125 24.300781 C 33.226562 24.894531 33.625 25.488281 34.035156 26.101562 C 33.636719 26.496094 33.238281 26.894531 32.828125 27.300781 C 31.546875 27.074219 31.546875 27.074219 30.417969 26.699219 C 30.417969 26.105469 30.417969 25.511719 30.417969 24.902344 C 29.820312 24.703125 29.222656 24.503906 28.609375 24.300781 Z M 28.609375 24.300781 "/><path style=" stroke:none;fill-rule:nonzero;fill:#fefefe;fill-opacity:1;" d="M 55.144531 21.300781 C 55.542969 21.300781 55.941406 21.300781 56.351562 21.300781 C 56.351562 22.6875 56.351562 24.074219 56.351562 25.5 C 55.953125 25.105469 55.554688 24.710938 55.144531 24.300781 C 53.945312 24.0625 52.738281 23.859375 51.527344 23.699219 C 51.726562 23.304688 51.921875 22.910156 52.128906 22.5 C 53.125 22.5 54.117188 22.5 55.144531 22.5 C 55.144531 22.105469 55.144531 21.710938 55.144531 21.300781 Z M 55.144531 21.300781 "/><path style=" stroke:none;fill-rule:nonzero;fill:#dde5ec;fill-opacity:1;" d="M 24.988281 33.300781 C 25.1875 33.300781 25.386719 33.300781 25.59375 33.300781 C 25.769531 36.933594 25.769531 36.933594 25.59375 38.101562 C 24.996094 38.496094 24.398438 38.890625 23.785156 39.300781 C 23.664062 35.667969 23.664062 35.667969 23.785156 34.5 C 24.179688 34.105469 24.578125 33.707031 24.988281 33.300781 Z M 24.988281 33.300781 "/></g></svg>