<svg xmlns="http://www.w3.org/2000/svg" xmlns:xlink="http://www.w3.org/1999/xlink" width="100" zoomAndPan="magnify" viewBox="0 0 75 74.999997" height="100" preserveAspectRatio="xMidYMid meet" version="1.2"><defs><clipPath id="af884870d0"><path d="M 9 7.5 L 66 7.5 L 66 67.5 L 9 67.5 Z M 9 7.5 "/></clipPath></defs><g id="0fc48f4ca9"><g clip-rule="nonzero" clip-path="url(#af884870d0)"><path style=" stroke:none;fill-rule:nonzero;fill:#ff6600;fill-opacity:1;" d="M 63.5 31.480469 L 44.664062 31.480469 C 43.714844 31.480469 42.949219 30.710938 42.949219 29.769531 L 42.949219 10.132812 C 42.949219 8.679688 41.769531 7.5 40.316406 7.5 L 33.59375 7.5 C 32.136719 7.5 30.960938 8.679688 30.960938 10.132812 L 30.960938 29.648438 C 30.960938 30.660156 30.140625 31.484375 29.128906 31.488281 L 22.953125 31.519531 C 21.933594 31.523438 21.105469 30.695312 21.105469 29.675781 L 21.144531 10.136719 C 21.148438 8.679688 19.96875 7.5 18.511719 7.5 L 11.792969 7.5 C 10.339844 7.5 9.160156 8.679688 9.160156 10.132812 L 9.160156 65.113281 C 9.160156 66.402344 10.207031 67.449219 11.5 67.449219 L 63.5 67.449219 C 64.792969 67.449219 65.839844 66.402344 65.839844 65.113281 L 65.839844 33.816406 C 65.839844 32.527344 64.792969 31.480469 63.5 31.480469 Z M 54.667969 52.121094 C 54.667969 53.816406 53.292969 55.1875 51.601562 55.1875 L 46.285156 55.1875 C 44.59375 55.1875 43.222656 53.816406 43.222656 52.121094 L 43.222656 46.808594 C 43.222656 45.113281 44.59375 43.742188 46.285156 43.742188 L 51.601562 43.742188 C 53.292969 43.742188 54.667969 45.113281 54.667969 46.808594 Z M 54.667969 52.121094 "/></g></g></svg>