<svg xmlns="http://www.w3.org/2000/svg" xmlns:xlink="http://www.w3.org/1999/xlink" width="100" zoomAndPan="magnify" viewBox="0 0 75 74.999997" height="100" preserveAspectRatio="xMidYMid meet" version="1.2"><defs><clipPath id="3325664a12"><path d="M 7.5 36 L 67.5 36 L 67.5 64 L 7.5 64 Z M 7.5 36 "/></clipPath><clipPath id="c77d21944f"><path d="M 7.5 31 L 67.5 31 L 67.5 58 L 7.5 58 Z M 7.5 31 "/></clipPath><clipPath id="ca3f99515e"><path d="M 7.5 26 L 67.5 26 L 67.5 54 L 7.5 54 Z M 7.5 26 "/></clipPath><clipPath id="aab678874c"><path d="M 7.5 22 L 67.5 22 L 67.5 48 L 7.5 48 Z M 7.5 22 "/></clipPath><clipPath id="e30219242d"><path d="M 7.5 16 L 67.5 16 L 67.5 44 L 7.5 44 Z M 7.5 16 "/></clipPath><clipPath id="8b3c366819"><path d="M 7.5 11 L 67.5 11 L 67.5 38 L 7.5 38 Z M 7.5 11 "/></clipPath></defs><g id="c8ea8e9321"><g clip-rule="nonzero" clip-path="url(#3325664a12)"><path style=" stroke:none;fill-rule:nonzero;fill:#912626;fill-opacity:1;" d="M 65.148438 51.3125 C 61.949219 52.984375 45.359375 59.804688 41.828125 61.644531 C 38.296875 63.484375 36.335938 63.46875 33.546875 62.136719 C 30.757812 60.800781 13.105469 53.671875 9.925781 52.152344 C 8.335938 51.390625 7.5 50.75 7.5 50.144531 L 7.5 44.082031 C 7.5 44.082031 30.480469 39.078125 34.191406 37.746094 C 37.902344 36.414062 39.1875 36.367188 42.34375 37.523438 C 45.5 38.679688 64.378906 42.085938 67.5 43.230469 L 67.496094 49.210938 C 67.5 49.808594 66.777344 50.464844 65.148438 51.3125 "/></g><g clip-rule="nonzero" clip-path="url(#c77d21944f)"><path style=" stroke:none;fill-rule:nonzero;fill:#c6302b;fill-opacity:1;" d="M 65.148438 45.285156 C 61.945312 46.953125 45.359375 53.773438 41.828125 55.613281 C 38.296875 57.457031 36.335938 57.4375 33.546875 56.105469 C 30.757812 54.773438 13.105469 47.640625 9.925781 46.121094 C 6.746094 44.601562 6.679688 43.554688 9.800781 42.332031 C 12.925781 41.109375 30.480469 34.222656 34.191406 32.890625 C 37.902344 31.5625 39.1875 31.511719 42.34375 32.667969 C 45.5 33.824219 61.988281 40.390625 65.109375 41.53125 C 68.230469 42.675781 68.351562 43.617188 65.148438 45.285156 "/></g><g clip-rule="nonzero" clip-path="url(#ca3f99515e)"><path style=" stroke:none;fill-rule:nonzero;fill:#912626;fill-opacity:1;" d="M 65.148438 41.5 C 61.949219 43.171875 45.359375 49.988281 41.828125 51.832031 C 38.296875 53.671875 36.335938 53.65625 33.546875 52.320312 C 30.757812 50.988281 13.105469 43.859375 9.925781 42.335938 C 8.335938 41.578125 7.5 40.9375 7.5 40.332031 L 7.5 34.269531 C 7.5 34.269531 30.480469 29.265625 34.191406 27.933594 C 37.902344 26.601562 39.1875 26.554688 42.34375 27.710938 C 45.5 28.867188 64.378906 32.273438 67.5 33.414062 L 67.496094 39.394531 C 67.5 39.992188 66.777344 40.652344 65.148438 41.5 "/></g><g clip-rule="nonzero" clip-path="url(#aab678874c)"><path style=" stroke:none;fill-rule:nonzero;fill:#c6302b;fill-opacity:1;" d="M 65.148438 35.472656 C 61.945312 37.140625 45.359375 43.960938 41.828125 45.804688 C 38.296875 47.644531 36.335938 47.625 33.546875 46.292969 C 30.757812 44.960938 13.105469 37.828125 9.925781 36.308594 C 6.746094 34.789062 6.679688 33.742188 9.800781 32.519531 C 12.925781 31.296875 30.480469 24.410156 34.191406 23.078125 C 37.902344 21.746094 39.1875 21.699219 42.34375 22.855469 C 45.5 24.015625 61.988281 30.574219 65.109375 31.71875 C 68.230469 32.863281 68.351562 33.804688 65.148438 35.472656 "/></g><g clip-rule="nonzero" clip-path="url(#e30219242d)"><path style=" stroke:none;fill-rule:nonzero;fill:#912626;fill-opacity:1;" d="M 65.148438 31.324219 C 61.949219 32.992188 45.359375 39.8125 41.828125 41.65625 C 38.296875 43.496094 36.335938 43.480469 33.546875 42.144531 C 30.757812 40.8125 13.105469 33.679688 9.925781 32.160156 C 8.335938 31.402344 7.5 30.761719 7.5 30.15625 L 7.5 24.089844 C 7.5 24.089844 30.480469 19.085938 34.191406 17.757812 C 37.902344 16.425781 39.1875 16.378906 42.34375 17.535156 C 45.5 18.691406 64.378906 22.097656 67.5 23.242188 L 67.496094 29.21875 C 67.5 29.816406 66.777344 30.476562 65.148438 31.324219 "/></g><g clip-rule="nonzero" clip-path="url(#8b3c366819)"><path style=" stroke:none;fill-rule:nonzero;fill:#c6302b;fill-opacity:1;" d="M 65.148438 25.296875 C 61.945312 26.964844 45.359375 33.785156 41.828125 35.625 C 38.296875 37.46875 36.335938 37.449219 33.546875 36.113281 C 30.757812 34.78125 13.105469 27.652344 9.925781 26.132812 C 6.746094 24.613281 6.679688 23.566406 9.804688 22.34375 C 12.925781 21.121094 30.480469 14.234375 34.191406 12.902344 C 37.902344 11.570312 39.1875 11.523438 42.34375 12.679688 C 45.5 13.835938 61.988281 20.398438 65.109375 21.542969 C 68.230469 22.683594 68.351562 23.628906 65.148438 25.296875 "/></g><path style=" stroke:none;fill-rule:nonzero;fill:#ffffff;fill-opacity:1;" d="M 44.832031 19.398438 L 39.671875 19.929688 L 38.519531 22.710938 L 36.652344 19.609375 L 30.695312 19.074219 L 35.140625 17.472656 L 33.808594 15.011719 L 37.96875 16.636719 L 41.890625 15.355469 L 40.832031 17.898438 L 44.832031 19.398438 M 38.210938 32.878906 L 28.585938 28.882812 L 42.378906 26.765625 L 38.210938 32.878906 M 24.863281 20.941406 C 28.9375 20.941406 32.234375 22.222656 32.234375 23.796875 C 32.234375 25.378906 28.9375 26.65625 24.863281 26.65625 C 20.792969 26.65625 17.488281 25.378906 17.488281 23.796875 C 17.488281 22.222656 20.792969 20.941406 24.863281 20.941406 "/><path style=" stroke:none;fill-rule:nonzero;fill:#621b1c;fill-opacity:1;" d="M 50.929688 20.15625 L 59.09375 23.382812 L 50.933594 26.605469 L 50.929688 20.15625 "/><path style=" stroke:none;fill-rule:nonzero;fill:#9a2928;fill-opacity:1;" d="M 41.898438 23.726562 L 50.929688 20.15625 L 50.933594 26.605469 L 50.050781 26.953125 L 41.898438 23.726562 "/></g></svg>