<svg xmlns="http://www.w3.org/2000/svg" xmlns:xlink="http://www.w3.org/1999/xlink" width="100" zoomAndPan="magnify" viewBox="0 0 75 74.999997" height="100" preserveAspectRatio="xMidYMid meet" version="1.2"><g id="4d7b27fc8b"><path style=" stroke:none;fill-rule:nonzero;fill:#3dce8d;fill-opacity:1;" d="M 39.898438 9.300781 C 41.476562 9.863281 41.476562 9.863281 42.898438 10.5 C 42.976562 13.394531 42.738281 15.960938 42.113281 18.785156 C 41.949219 19.53125 41.789062 20.273438 41.621094 21.039062 C 41.363281 22.191406 41.363281 22.191406 41.101562 23.363281 C 40.925781 24.152344 40.753906 24.941406 40.578125 25.734375 C 40.15625 27.65625 39.730469 29.578125 39.300781 31.5 C 39.800781 31.492188 40.304688 31.488281 40.824219 31.480469 C 42.6875 31.460938 44.550781 31.445312 46.410156 31.433594 C 47.617188 31.425781 48.820312 31.410156 50.023438 31.394531 C 50.777344 31.390625 51.53125 31.386719 52.308594 31.382812 C 53.003906 31.375 53.703125 31.371094 54.421875 31.363281 C 56.101562 31.5 56.101562 31.5 57.300781 32.699219 C 57.761719 35.503906 57.335938 37.128906 55.757812 39.402344 C 55.058594 40.328125 54.34375 41.242188 53.625 42.148438 C 52.855469 43.15625 52.082031 44.164062 51.3125 45.171875 C 50.914062 45.6875 50.515625 46.203125 50.105469 46.734375 C 48.171875 49.25 46.308594 51.8125 44.4375 54.375 C 43.132812 56.15625 41.820312 57.929688 40.5 59.699219 C 40.132812 60.199219 39.761719 60.699219 39.382812 61.210938 C 39.015625 61.699219 38.644531 62.191406 38.265625 62.695312 C 37.933594 63.140625 37.597656 63.585938 37.257812 64.046875 C 36.300781 65.101562 36.300781 65.101562 34.5 65.699219 C 33.148438 65.175781 33.148438 65.175781 32.101562 63.898438 C 32.363281 59.507812 33.3125 55.257812 34.238281 50.960938 C 34.378906 50.300781 34.519531 49.636719 34.664062 48.953125 C 35.007812 47.335938 35.351562 45.71875 35.699219 44.101562 C 35.21875 44.109375 34.738281 44.117188 34.242188 44.128906 C 32.066406 44.164062 29.890625 44.1875 27.710938 44.210938 C 26.574219 44.234375 26.574219 44.234375 25.417969 44.257812 C 24.328125 44.265625 24.328125 44.265625 23.21875 44.277344 C 22.214844 44.289062 22.214844 44.289062 21.191406 44.304688 C 19.5 44.101562 19.5 44.101562 18.382812 43.3125 C 17.207031 41.566406 17.453125 40.140625 17.699219 38.101562 C 18.71875 36.382812 18.71875 36.382812 20.175781 34.648438 C 20.730469 33.972656 21.28125 33.292969 21.832031 32.609375 C 22.28125 32.058594 22.28125 32.058594 22.742188 31.5 C 24.519531 29.277344 26.183594 26.972656 27.863281 24.675781 C 28.21875 24.191406 28.570312 23.710938 28.9375 23.214844 C 30.652344 20.878906 32.363281 18.539062 34.0625 16.191406 C 34.363281 15.773438 34.667969 15.355469 34.980469 14.925781 C 35.546875 14.144531 36.113281 13.359375 36.675781 12.574219 C 38.566406 9.96875 38.566406 9.96875 39.898438 9.300781 Z M 39.898438 9.300781 "/><path style=" stroke:none;fill-rule:nonzero;fill:#31b479;fill-opacity:1;" d="M 37.800781 43.433594 C 38.449219 43.433594 39.101562 43.4375 39.769531 43.441406 C 40.824219 43.445312 40.824219 43.445312 41.898438 43.445312 C 42.636719 43.453125 43.375 43.457031 44.136719 43.460938 C 45.25 43.464844 45.25 43.464844 46.382812 43.46875 C 48.222656 43.476562 50.0625 43.488281 51.898438 43.5 C 49.894531 47.285156 47.394531 50.582031 44.773438 53.960938 C 43.9375 55.050781 43.101562 56.136719 42.265625 57.222656 C 41.867188 57.742188 41.464844 58.257812 41.050781 58.792969 C 39.691406 60.570312 38.382812 62.386719 37.09375 64.214844 C 36.300781 65.101562 36.300781 65.101562 34.5 65.699219 C 33.148438 65.175781 33.148438 65.175781 32.101562 63.898438 C 32.367188 59.523438 33.292969 55.28125 34.199219 51 C 34.335938 50.34375 34.46875 49.683594 34.609375 49.007812 C 35.761719 43.523438 35.761719 43.523438 37.800781 43.433594 Z M 37.800781 43.433594 "/></g></svg>