<svg xmlns="http://www.w3.org/2000/svg" xmlns:xlink="http://www.w3.org/1999/xlink" width="100" zoomAndPan="magnify" viewBox="0 0 75 74.999997" height="100" preserveAspectRatio="xMidYMid meet" version="1.2"><defs><clipPath id="10f1f0d3d4"><path d="M 7.5 7.5 L 67.5 7.5 L 67.5 67.5 L 7.5 67.5 Z M 7.5 7.5 "/></clipPath></defs><g id="de52be1b0f"><g clip-rule="nonzero" clip-path="url(#10f1f0d3d4)"><path style=" stroke:none;fill-rule:nonzero;fill:#fcfdfe;fill-opacity:1;" d="M 7.5 7.5 C 27.300781 7.5 47.101562 7.5 67.5 7.5 C 67.5 27.300781 67.5 47.101562 67.5 67.5 C 47.699219 67.5 27.898438 67.5 7.5 67.5 C 7.5 47.699219 7.5 27.898438 7.5 7.5 Z M 7.5 7.5 "/></g><path style=" stroke:none;fill-rule:nonzero;fill:#2aa4c3;fill-opacity:1;" d="M 37.199219 11.925781 C 39.632812 12.359375 40.679688 12.832031 42.300781 14.699219 C 42.675781 16.5 42.675781 16.5 42.300781 18.300781 C 40.625 20.308594 39.15625 20.777344 36.671875 21.105469 C 32.511719 21.890625 29.125 23.960938 25.5 26.0625 C 24.820312 26.441406 24.144531 26.824219 23.445312 27.214844 C 19.816406 29.144531 19.816406 29.144531 17.101562 32.101562 C 17.519531 32.253906 17.9375 32.410156 18.367188 32.566406 C 20.285156 33.378906 22.015625 34.355469 23.808594 35.40625 C 24.523438 35.816406 25.234375 36.226562 25.945312 36.632812 C 27.058594 37.273438 28.167969 37.914062 29.273438 38.566406 C 30.347656 39.195312 31.425781 39.816406 32.511719 40.433594 C 33.152344 40.804688 33.792969 41.175781 34.453125 41.5625 C 36.648438 42.441406 37.648438 42.367188 39.898438 41.699219 C 41.546875 40.960938 41.546875 40.960938 43.144531 40 C 43.738281 39.65625 44.332031 39.316406 44.945312 38.960938 C 45.558594 38.605469 46.167969 38.246094 46.800781 37.875 C 48.019531 37.167969 49.238281 36.464844 50.457031 35.761719 C 51.019531 35.433594 51.585938 35.105469 52.167969 34.769531 C 53.851562 33.8125 55.550781 32.933594 57.300781 32.101562 C 57.300781 31.703125 57.300781 31.308594 57.300781 30.898438 C 53.910156 28.648438 53.910156 28.648438 50.023438 27.863281 C 46.394531 29.203125 44.152344 30.378906 42.300781 33.898438 C 40.089844 35.371094 38.265625 35.519531 35.699219 35.101562 C 33.949219 33.917969 33.414062 33.265625 33 31.199219 C 33.414062 29.136719 33.976562 28.507812 35.699219 27.300781 C 36.429688 27.238281 37.15625 27.171875 37.90625 27.109375 C 40.808594 26.800781 42.738281 25.539062 45.113281 23.925781 C 49.039062 21.257812 49.039062 21.257812 50.941406 21.433594 C 52.628906 21.9375 53.984375 22.613281 55.507812 23.492188 C 56.058594 23.808594 56.613281 24.125 57.183594 24.453125 C 57.753906 24.785156 58.324219 25.121094 58.914062 25.460938 C 59.488281 25.792969 60.066406 26.125 60.660156 26.464844 C 64.929688 28.929688 64.929688 28.929688 66.300781 30.300781 C 66.359375 31.699219 66.359375 31.699219 65.699219 33.300781 C 64.300781 34.4375 62.75 35.261719 61.164062 36.113281 C 59.648438 36.941406 58.175781 37.796875 56.699219 38.699219 C 56.699219 39.097656 56.699219 39.492188 56.699219 39.898438 C 57.664062 40.367188 57.664062 40.367188 58.648438 40.84375 C 59.484375 41.265625 60.324219 41.6875 61.164062 42.113281 C 61.585938 42.316406 62.011719 42.519531 62.449219 42.730469 C 65.570312 44.328125 65.570312 44.328125 66.285156 46.363281 C 66.289062 46.804688 66.292969 47.246094 66.300781 47.699219 C 64.167969 49.488281 62.003906 50.917969 59.585938 52.285156 C 59.234375 52.488281 58.882812 52.6875 58.519531 52.890625 C 57.402344 53.527344 56.28125 54.15625 55.164062 54.789062 C 54.0625 55.410156 52.960938 56.03125 51.863281 56.65625 C 51.136719 57.066406 50.410156 57.476562 49.683594 57.886719 C 47.929688 58.875 46.199219 59.886719 44.480469 60.941406 C 43.542969 61.519531 43.542969 61.519531 42.582031 62.105469 C 42.035156 62.453125 41.488281 62.796875 40.921875 63.152344 C 38.972656 64.050781 37.828125 64.167969 35.699219 63.898438 C 33.890625 63.105469 33.890625 63.105469 31.988281 61.988281 C 31.644531 61.792969 31.300781 61.59375 30.949219 61.386719 C 29.839844 60.746094 28.738281 60.089844 27.636719 59.4375 C 26.878906 58.996094 26.121094 58.550781 25.363281 58.109375 C 23.203125 56.851562 21.050781 55.574219 18.898438 54.300781 C 17.878906 53.699219 16.859375 53.101562 15.835938 52.503906 C 10.136719 49.136719 10.136719 49.136719 8.699219 47.699219 C 8.644531 46.28125 8.644531 46.28125 9.300781 44.699219 C 10.808594 43.738281 12.191406 42.972656 13.800781 42.226562 C 15.339844 41.492188 16.808594 40.730469 18.300781 39.898438 C 18.496094 39.304688 18.695312 38.710938 18.898438 38.101562 C 18.429688 37.976562 17.960938 37.851562 17.476562 37.726562 C 15.566406 37 13.890625 36.207031 12.113281 35.210938 C 11.335938 34.78125 11.335938 34.78125 10.542969 34.339844 C 9.300781 33.300781 9.300781 33.300781 8.824219 31.679688 C 8.761719 30.996094 8.761719 30.996094 8.699219 30.300781 C 10.730469 28.597656 12.761719 27.226562 15.085938 25.953125 C 15.726562 25.601562 16.371094 25.246094 17.03125 24.878906 C 17.699219 24.515625 18.363281 24.148438 19.050781 23.773438 C 27.140625 19.8125 27.140625 19.8125 33.675781 13.875 C 35.101562 12.300781 35.101562 12.300781 37.199219 11.925781 Z M 37.199219 11.925781 "/><path style=" stroke:none;fill-rule:nonzero;fill:#f8fcfd;fill-opacity:1;" d="M 51.097656 42.339844 C 52.605469 42.941406 53.984375 43.621094 55.386719 44.4375 C 55.863281 44.710938 56.335938 44.984375 56.824219 45.265625 C 57.179688 45.472656 57.535156 45.683594 57.898438 45.898438 C 56.996094 48.464844 55.433594 49.203125 53.101562 50.460938 C 52.75 50.65625 52.394531 50.847656 52.03125 51.046875 C 50.902344 51.664062 49.769531 52.269531 48.636719 52.875 C 47.507812 53.488281 46.378906 54.101562 45.25 54.714844 C 44.226562 55.273438 43.199219 55.824219 42.171875 56.375 C 40.449219 57.296875 40.449219 57.296875 38.699219 58.5 C 36.03125 58.320312 34.054688 57.085938 31.773438 55.761719 C 31.410156 55.550781 31.042969 55.339844 30.664062 55.125 C 29.503906 54.453125 28.347656 53.777344 27.1875 53.101562 C 26.402344 52.644531 25.617188 52.191406 24.832031 51.734375 C 23.394531 50.90625 21.964844 50.074219 20.53125 49.238281 C 19.601562 48.703125 18.660156 48.179688 17.699219 47.699219 C 17.699219 47.105469 17.699219 46.511719 17.699219 45.898438 C 18.519531 45.390625 19.34375 44.894531 20.175781 44.398438 C 20.863281 43.980469 20.863281 43.980469 21.566406 43.554688 C 23.507812 42.726562 24.601562 42.609375 26.699219 42.898438 C 28.8125 43.886719 30.742188 45.171875 32.695312 46.433594 C 34.757812 47.6875 35.953125 48.292969 38.417969 48.339844 C 41.382812 47.429688 43.6875 45.859375 46.242188 44.136719 C 49.113281 42.289062 49.113281 42.289062 51.097656 42.339844 Z M 51.097656 42.339844 "/></g></svg>